<?xml version="1.0" encoding="utf-8" standalone="no"?>
<!DOCTYPE svg PUBLIC "-//W3C//DTD SVG 1.1//EN"
  "http://www.w3.org/Graphics/SVG/1.1/DTD/svg11.dtd">
<svg xmlns:xlink="http://www.w3.org/1999/xlink" width="907.2pt" height="513.36pt" viewBox="0 0 907.2 513.36" xmlns="http://www.w3.org/2000/svg" version="1.1">
 <metadata>
  <rdf:RDF xmlns:dc="http://purl.org/dc/elements/1.1/" xmlns:cc="http://creativecommons.org/ns#" xmlns:rdf="http://www.w3.org/1999/02/22-rdf-syntax-ns#">
   <cc:Work>
    <dc:type rdf:resource="http://purl.org/dc/dcmitype/StillImage"/>
    <dc:date>2026-04-18T04:31:54.145734</dc:date>
    <dc:format>image/svg+xml</dc:format>
    <dc:creator>
     <cc:Agent>
      <dc:title>Matplotlib v3.10.8, https://matplotlib.org/</dc:title>
     </cc:Agent>
    </dc:creator>
   </cc:Work>
  </rdf:RDF>
 </metadata>
 <defs>
  <style type="text/css">*{stroke-linejoin: round; stroke-linecap: butt}</style>
 </defs>
 <g id="figure_1">
  <g id="patch_1">
   <path d="M 0 513.36 
L 907.2 513.36 
L 907.2 -0 
L 0 -0 
z
" style="fill: #f5f7fb"/>
  </g>
  <g id="axes_1">
   <g id="patch_2">
    <path d="M 142.753568 119.053253 
C 175.579238 116.474988 205.952038 109.57671 227.182713 99.877685 
C 248.413388 90.178661 258.768547 78.470773 255.967586 67.332547 
C 253.166626 56.19432 237.438232 46.535144 212.2464 40.482338 
C 187.054568 34.429532 154.456101 32.477281 121.630432 35.055547 
C 88.804762 37.633812 58.431962 44.53209 37.201287 54.231115 
C 15.970612 63.930139 5.615453 75.638027 8.416414 86.776253 
C 11.217374 97.91448 26.945768 107.573656 52.1376 113.626462 
C 77.329432 119.679268 109.927899 121.631519 142.753568 119.053253 
z
" clip-path="url(#pf126c46f1f)" style="fill: #d8e9ff; opacity: 0.7"/>
   </g>
   <g id="patch_3">
    <path d="M 757.95436 480.378164 
C 797.594315 484.284445 837.412936 482.336026 868.640634 474.962024 
C 899.868332 467.588021 919.955503 455.39049 924.478182 441.055794 
C 929.00086 426.721099 917.589788 411.419603 892.758124 398.521285 
C 867.926459 385.622967 831.701596 376.180917 792.06164 372.274636 
C 752.421685 368.368355 712.603064 370.316774 681.375366 377.690776 
C 650.147668 385.064779 630.060497 397.26231 625.537818 411.597006 
C 621.01514 425.931701 632.426212 441.233197 657.257876 454.131515 
C 682.089541 467.029833 718.314404 476.471883 757.95436 480.378164 
z
" clip-path="url(#pf126c46f1f)" style="fill: #e6e9ff; opacity: 0.65"/>
   </g>
   <g id="patch_4">
    <path d="M 569.664 97.0128 
C 598.076799 97.0128 625.329709 93.858386 645.420592 88.24428 
C 665.511475 82.630174 676.8 75.014744 676.8 67.0752 
C 676.8 59.135656 665.511475 51.520226 645.420592 45.90612 
C 625.329709 40.292014 598.076799 37.1376 569.664 37.1376 
C 541.251201 37.1376 513.998291 40.292014 493.907408 45.90612 
C 473.816525 51.520226 462.528 59.135656 462.528 67.0752 
C 462.528 75.014744 473.816525 82.630174 493.907408 88.24428 
C 513.998291 93.858386 541.251201 97.0128 569.664 97.0128 
z
" clip-path="url(#pf126c46f1f)" style="fill: #e9efff; opacity: 0.85"/>
   </g>
   <g id="patch_5">
    <path d="M 80.4096 308.57184 
L 205.4016 308.57184 
Q 241.1136 308.57184 241.1136 288.61344 
L 241.1136 188.82144 
Q 241.1136 168.86304 205.4016 168.86304 
L 80.4096 168.86304 
Q 44.6976 168.86304 44.6976 188.82144 
L 44.6976 288.61344 
Q 44.6976 308.57184 80.4096 308.57184 
z
" clip-path="url(#pf126c46f1f)" style="fill: #cfd8ea; opacity: 0.18"/>
   </g>
   <g id="patch_6">
    <path d="M 281.2896 323.54064 
L 433.0656 323.54064 
Q 468.7776 323.54064 468.7776 303.58224 
L 468.7776 188.82144 
Q 468.7776 168.86304 433.0656 168.86304 
L 281.2896 168.86304 
Q 245.5776 168.86304 245.5776 188.82144 
L 245.5776 303.58224 
Q 245.5776 323.54064 281.2896 323.54064 
z
" clip-path="url(#pf126c46f1f)" style="fill: #cfd8ea; opacity: 0.18"/>
   </g>
   <g id="patch_7">
    <path d="M 508.9536 308.57184 
L 633.9456 308.57184 
Q 669.6576 308.57184 669.6576 288.61344 
L 669.6576 188.82144 
Q 669.6576 168.86304 633.9456 168.86304 
L 508.9536 168.86304 
Q 473.2416 168.86304 473.2416 188.82144 
L 473.2416 288.61344 
Q 473.2416 308.57184 508.9536 308.57184 
z
" clip-path="url(#pf126c46f1f)" style="fill: #cfd8ea; opacity: 0.18"/>
   </g>
   <g id="patch_8">
    <path d="M 705.3696 323.54064 
L 839.2896 323.54064 
Q 875.0016 323.54064 875.0016 303.58224 
L 875.0016 188.82144 
Q 875.0016 168.86304 839.2896 168.86304 
L 705.3696 168.86304 
Q 669.6576 168.86304 669.6576 188.82144 
L 669.6576 303.58224 
Q 669.6576 323.54064 705.3696 323.54064 
z
" clip-path="url(#pf126c46f1f)" style="fill: #cfd8ea; opacity: 0.18"/>
   </g>
   <g id="patch_9">
    <path d="M 69.696 301.5864 
L 194.688 301.5864 
Q 230.4 301.5864 230.4 281.628 
L 230.4 181.836 
Q 230.4 161.8776 194.688 161.8776 
L 69.696 161.8776 
Q 33.984 161.8776 33.984 181.836 
L 33.984 281.628 
Q 33.984 301.5864 69.696 301.5864 
z
" clip-path="url(#pf126c46f1f)" style="fill: #fcfdff; stroke: #d9dfec; stroke-width: 1.2; stroke-linejoin: miter"/>
   </g>
   <g id="patch_10">
    <path d="M 270.576 316.5552 
L 422.352 316.5552 
Q 458.064 316.5552 458.064 296.5968 
L 458.064 181.836 
Q 458.064 161.8776 422.352 161.8776 
L 270.576 161.8776 
Q 234.864 161.8776 234.864 181.836 
L 234.864 296.5968 
Q 234.864 316.5552 270.576 316.5552 
z
" clip-path="url(#pf126c46f1f)" style="fill: #fcfdff; stroke: #d9dfec; stroke-width: 1.2; stroke-linejoin: miter"/>
   </g>
   <g id="patch_11">
    <path d="M 498.24 301.5864 
L 623.232 301.5864 
Q 658.944 301.5864 658.944 281.628 
L 658.944 181.836 
Q 658.944 161.8776 623.232 161.8776 
L 498.24 161.8776 
Q 462.528 161.8776 462.528 181.836 
L 462.528 281.628 
Q 462.528 301.5864 498.24 301.5864 
z
" clip-path="url(#pf126c46f1f)" style="fill: #fcfdff; stroke: #d9dfec; stroke-width: 1.2; stroke-linejoin: miter"/>
   </g>
   <g id="patch_12">
    <path d="M 694.656 316.5552 
L 828.576 316.5552 
Q 864.288 316.5552 864.288 296.5968 
L 864.288 181.836 
Q 864.288 161.8776 828.576 161.8776 
L 694.656 161.8776 
Q 658.944 161.8776 658.944 181.836 
L 658.944 296.5968 
Q 658.944 316.5552 694.656 316.5552 
z
" clip-path="url(#pf126c46f1f)" style="fill: #fcfdff; stroke: #d9dfec; stroke-width: 1.2; stroke-linejoin: miter"/>
   </g>
   <g id="text_1">
    <!-- Risk-Gated Retention Loop -->
    <g style="fill: #132238" transform="translate(51.84 49.85345) scale(0.28 -0.28)">
     <defs>
      <path id="DejaVuSans-Bold-52" d="M 2297 2597 
Q 2675 2597 2839 2737 
Q 3003 2878 3003 3200 
Q 3003 3519 2839 3656 
Q 2675 3794 2297 3794 
L 1791 3794 
L 1791 2597 
L 2297 2597 
z
M 1791 1766 
L 1791 0 
L 588 0 
L 588 4666 
L 2425 4666 
Q 3347 4666 3776 4356 
Q 4206 4047 4206 3378 
Q 4206 2916 3982 2619 
Q 3759 2322 3309 2181 
Q 3556 2125 3751 1926 
Q 3947 1728 4147 1325 
L 4800 0 
L 3519 0 
L 2950 1159 
Q 2778 1509 2601 1637 
Q 2425 1766 2131 1766 
L 1791 1766 
z
" transform="scale(0.015625)"/>
      <path id="DejaVuSans-Bold-69" d="M 538 3500 
L 1656 3500 
L 1656 0 
L 538 0 
L 538 3500 
z
M 538 4863 
L 1656 4863 
L 1656 3950 
L 538 3950 
L 538 4863 
z
" transform="scale(0.015625)"/>
      <path id="DejaVuSans-Bold-73" d="M 3272 3391 
L 3272 2541 
Q 2913 2691 2578 2766 
Q 2244 2841 1947 2841 
Q 1628 2841 1473 2761 
Q 1319 2681 1319 2516 
Q 1319 2381 1436 2309 
Q 1553 2238 1856 2203 
L 2053 2175 
Q 2913 2066 3209 1816 
Q 3506 1566 3506 1031 
Q 3506 472 3093 190 
Q 2681 -91 1863 -91 
Q 1516 -91 1145 -36 
Q 775 19 384 128 
L 384 978 
Q 719 816 1070 734 
Q 1422 653 1784 653 
Q 2113 653 2278 743 
Q 2444 834 2444 1013 
Q 2444 1163 2330 1236 
Q 2216 1309 1875 1350 
L 1678 1375 
Q 931 1469 631 1722 
Q 331 1975 331 2491 
Q 331 3047 712 3315 
Q 1094 3584 1881 3584 
Q 2191 3584 2531 3537 
Q 2872 3491 3272 3391 
z
" transform="scale(0.015625)"/>
      <path id="DejaVuSans-Bold-6b" d="M 538 4863 
L 1656 4863 
L 1656 2216 
L 2944 3500 
L 4244 3500 
L 2534 1894 
L 4378 0 
L 3022 0 
L 1656 1459 
L 1656 0 
L 538 0 
L 538 4863 
z
" transform="scale(0.015625)"/>
      <path id="DejaVuSans-Bold-2d" d="M 347 2297 
L 2309 2297 
L 2309 1388 
L 347 1388 
L 347 2297 
z
" transform="scale(0.015625)"/>
      <path id="DejaVuSans-Bold-47" d="M 4781 347 
Q 4331 128 3847 18 
Q 3363 -91 2847 -91 
Q 1681 -91 1000 561 
Q 319 1213 319 2328 
Q 319 3456 1012 4103 
Q 1706 4750 2913 4750 
Q 3378 4750 3804 4662 
Q 4231 4575 4609 4403 
L 4609 3438 
Q 4219 3659 3833 3768 
Q 3447 3878 3059 3878 
Q 2341 3878 1952 3476 
Q 1563 3075 1563 2328 
Q 1563 1588 1938 1184 
Q 2313 781 3003 781 
Q 3191 781 3352 804 
Q 3513 828 3641 878 
L 3641 1784 
L 2906 1784 
L 2906 2591 
L 4781 2591 
L 4781 347 
z
" transform="scale(0.015625)"/>
      <path id="DejaVuSans-Bold-61" d="M 2106 1575 
Q 1756 1575 1579 1456 
Q 1403 1338 1403 1106 
Q 1403 894 1545 773 
Q 1688 653 1941 653 
Q 2256 653 2472 879 
Q 2688 1106 2688 1447 
L 2688 1575 
L 2106 1575 
z
M 3816 1997 
L 3816 0 
L 2688 0 
L 2688 519 
Q 2463 200 2181 54 
Q 1900 -91 1497 -91 
Q 953 -91 614 226 
Q 275 544 275 1050 
Q 275 1666 698 1953 
Q 1122 2241 2028 2241 
L 2688 2241 
L 2688 2328 
Q 2688 2594 2478 2717 
Q 2269 2841 1825 2841 
Q 1466 2841 1156 2769 
Q 847 2697 581 2553 
L 581 3406 
Q 941 3494 1303 3539 
Q 1666 3584 2028 3584 
Q 2975 3584 3395 3211 
Q 3816 2838 3816 1997 
z
" transform="scale(0.015625)"/>
      <path id="DejaVuSans-Bold-74" d="M 1759 4494 
L 1759 3500 
L 2913 3500 
L 2913 2700 
L 1759 2700 
L 1759 1216 
Q 1759 972 1856 886 
Q 1953 800 2241 800 
L 2816 800 
L 2816 0 
L 1856 0 
Q 1194 0 917 276 
Q 641 553 641 1216 
L 641 2700 
L 84 2700 
L 84 3500 
L 641 3500 
L 641 4494 
L 1759 4494 
z
" transform="scale(0.015625)"/>
      <path id="DejaVuSans-Bold-65" d="M 4031 1759 
L 4031 1441 
L 1416 1441 
Q 1456 1047 1700 850 
Q 1944 653 2381 653 
Q 2734 653 3104 758 
Q 3475 863 3866 1075 
L 3866 213 
Q 3469 63 3072 -14 
Q 2675 -91 2278 -91 
Q 1328 -91 801 392 
Q 275 875 275 1747 
Q 275 2603 792 3093 
Q 1309 3584 2216 3584 
Q 3041 3584 3536 3087 
Q 4031 2591 4031 1759 
z
M 2881 2131 
Q 2881 2450 2695 2645 
Q 2509 2841 2209 2841 
Q 1884 2841 1681 2658 
Q 1478 2475 1428 2131 
L 2881 2131 
z
" transform="scale(0.015625)"/>
      <path id="DejaVuSans-Bold-64" d="M 2919 2988 
L 2919 4863 
L 4044 4863 
L 4044 0 
L 2919 0 
L 2919 506 
Q 2688 197 2409 53 
Q 2131 -91 1766 -91 
Q 1119 -91 703 423 
Q 288 938 288 1747 
Q 288 2556 703 3070 
Q 1119 3584 1766 3584 
Q 2128 3584 2408 3439 
Q 2688 3294 2919 2988 
z
M 2181 722 
Q 2541 722 2730 984 
Q 2919 1247 2919 1747 
Q 2919 2247 2730 2509 
Q 2541 2772 2181 2772 
Q 1825 2772 1636 2509 
Q 1447 2247 1447 1747 
Q 1447 1247 1636 984 
Q 1825 722 2181 722 
z
" transform="scale(0.015625)"/>
      <path id="DejaVuSans-Bold-20" transform="scale(0.015625)"/>
      <path id="DejaVuSans-Bold-6e" d="M 4056 2131 
L 4056 0 
L 2931 0 
L 2931 347 
L 2931 1631 
Q 2931 2084 2911 2256 
Q 2891 2428 2841 2509 
Q 2775 2619 2662 2680 
Q 2550 2741 2406 2741 
Q 2056 2741 1856 2470 
Q 1656 2200 1656 1722 
L 1656 0 
L 538 0 
L 538 3500 
L 1656 3500 
L 1656 2988 
Q 1909 3294 2193 3439 
Q 2478 3584 2822 3584 
Q 3428 3584 3742 3212 
Q 4056 2841 4056 2131 
z
" transform="scale(0.015625)"/>
      <path id="DejaVuSans-Bold-6f" d="M 2203 2784 
Q 1831 2784 1636 2517 
Q 1441 2250 1441 1747 
Q 1441 1244 1636 976 
Q 1831 709 2203 709 
Q 2569 709 2762 976 
Q 2956 1244 2956 1747 
Q 2956 2250 2762 2517 
Q 2569 2784 2203 2784 
z
M 2203 3584 
Q 3106 3584 3614 3096 
Q 4122 2609 4122 1747 
Q 4122 884 3614 396 
Q 3106 -91 2203 -91 
Q 1297 -91 786 396 
Q 275 884 275 1747 
Q 275 2609 786 3096 
Q 1297 3584 2203 3584 
z
" transform="scale(0.015625)"/>
      <path id="DejaVuSans-Bold-4c" d="M 588 4666 
L 1791 4666 
L 1791 909 
L 3903 909 
L 3903 0 
L 588 0 
L 588 4666 
z
" transform="scale(0.015625)"/>
      <path id="DejaVuSans-Bold-70" d="M 1656 506 
L 1656 -1331 
L 538 -1331 
L 538 3500 
L 1656 3500 
L 1656 2988 
Q 1888 3294 2169 3439 
Q 2450 3584 2816 3584 
Q 3463 3584 3878 3070 
Q 4294 2556 4294 1747 
Q 4294 938 3878 423 
Q 3463 -91 2816 -91 
Q 2450 -91 2169 54 
Q 1888 200 1656 506 
z
M 2400 2772 
Q 2041 2772 1848 2508 
Q 1656 2244 1656 1747 
Q 1656 1250 1848 986 
Q 2041 722 2400 722 
Q 2759 722 2948 984 
Q 3138 1247 3138 1747 
Q 3138 2247 2948 2509 
Q 2759 2772 2400 2772 
z
" transform="scale(0.015625)"/>
     </defs>
     <use xlink:href="#DejaVuSans-Bold-52"/>
     <use xlink:href="#DejaVuSans-Bold-69" transform="translate(77.001953 0)"/>
     <use xlink:href="#DejaVuSans-Bold-73" transform="translate(111.279297 0)"/>
     <use xlink:href="#DejaVuSans-Bold-6b" transform="translate(170.800781 0)"/>
     <use xlink:href="#DejaVuSans-Bold-2d" transform="translate(237.304688 0)"/>
     <use xlink:href="#DejaVuSans-Bold-47" transform="translate(278.808594 0)"/>
     <use xlink:href="#DejaVuSans-Bold-61" transform="translate(360.888672 0)"/>
     <use xlink:href="#DejaVuSans-Bold-74" transform="translate(428.369141 0)"/>
     <use xlink:href="#DejaVuSans-Bold-65" transform="translate(476.171875 0)"/>
     <use xlink:href="#DejaVuSans-Bold-64" transform="translate(543.994141 0)"/>
     <use xlink:href="#DejaVuSans-Bold-20" transform="translate(615.576172 0)"/>
     <use xlink:href="#DejaVuSans-Bold-52" transform="translate(650.390625 0)"/>
     <use xlink:href="#DejaVuSans-Bold-65" transform="translate(727.392578 0)"/>
     <use xlink:href="#DejaVuSans-Bold-74" transform="translate(795.214844 0)"/>
     <use xlink:href="#DejaVuSans-Bold-65" transform="translate(843.017578 0)"/>
     <use xlink:href="#DejaVuSans-Bold-6e" transform="translate(910.839844 0)"/>
     <use xlink:href="#DejaVuSans-Bold-74" transform="translate(982.03125 0)"/>
     <use xlink:href="#DejaVuSans-Bold-69" transform="translate(1029.833984 0)"/>
     <use xlink:href="#DejaVuSans-Bold-6f" transform="translate(1064.111328 0)"/>
     <use xlink:href="#DejaVuSans-Bold-6e" transform="translate(1132.8125 0)"/>
     <use xlink:href="#DejaVuSans-Bold-20" transform="translate(1204.003906 0)"/>
     <use xlink:href="#DejaVuSans-Bold-4c" transform="translate(1238.818359 0)"/>
     <use xlink:href="#DejaVuSans-Bold-6f" transform="translate(1302.539062 0)"/>
     <use xlink:href="#DejaVuSans-Bold-6f" transform="translate(1371.240234 0)"/>
     <use xlink:href="#DejaVuSans-Bold-70" transform="translate(1439.941406 0)"/>
    </g>
   </g>
   <g id="text_2">
    <!-- Model 1 decides who should be targeted. Model 2 decides which intervention creates the highest net value. -->
    <g style="fill: #5a6884" transform="translate(51.84 73.698525) scale(0.12 -0.12)">
     <defs>
      <path id="DejaVuSans-4d" d="M 628 4666 
L 1569 4666 
L 2759 1491 
L 3956 4666 
L 4897 4666 
L 4897 0 
L 4281 0 
L 4281 4097 
L 3078 897 
L 2444 897 
L 1241 4097 
L 1241 0 
L 628 0 
L 628 4666 
z
" transform="scale(0.015625)"/>
      <path id="DejaVuSans-6f" d="M 1959 3097 
Q 1497 3097 1228 2736 
Q 959 2375 959 1747 
Q 959 1119 1226 758 
Q 1494 397 1959 397 
Q 2419 397 2687 759 
Q 2956 1122 2956 1747 
Q 2956 2369 2687 2733 
Q 2419 3097 1959 3097 
z
M 1959 3584 
Q 2709 3584 3137 3096 
Q 3566 2609 3566 1747 
Q 3566 888 3137 398 
Q 2709 -91 1959 -91 
Q 1206 -91 779 398 
Q 353 888 353 1747 
Q 353 2609 779 3096 
Q 1206 3584 1959 3584 
z
" transform="scale(0.015625)"/>
      <path id="DejaVuSans-64" d="M 2906 2969 
L 2906 4863 
L 3481 4863 
L 3481 0 
L 2906 0 
L 2906 525 
Q 2725 213 2448 61 
Q 2172 -91 1784 -91 
Q 1150 -91 751 415 
Q 353 922 353 1747 
Q 353 2572 751 3078 
Q 1150 3584 1784 3584 
Q 2172 3584 2448 3432 
Q 2725 3281 2906 2969 
z
M 947 1747 
Q 947 1113 1208 752 
Q 1469 391 1925 391 
Q 2381 391 2643 752 
Q 2906 1113 2906 1747 
Q 2906 2381 2643 2742 
Q 2381 3103 1925 3103 
Q 1469 3103 1208 2742 
Q 947 2381 947 1747 
z
" transform="scale(0.015625)"/>
      <path id="DejaVuSans-65" d="M 3597 1894 
L 3597 1613 
L 953 1613 
Q 991 1019 1311 708 
Q 1631 397 2203 397 
Q 2534 397 2845 478 
Q 3156 559 3463 722 
L 3463 178 
Q 3153 47 2828 -22 
Q 2503 -91 2169 -91 
Q 1331 -91 842 396 
Q 353 884 353 1716 
Q 353 2575 817 3079 
Q 1281 3584 2069 3584 
Q 2775 3584 3186 3129 
Q 3597 2675 3597 1894 
z
M 3022 2063 
Q 3016 2534 2758 2815 
Q 2500 3097 2075 3097 
Q 1594 3097 1305 2825 
Q 1016 2553 972 2059 
L 3022 2063 
z
" transform="scale(0.015625)"/>
      <path id="DejaVuSans-6c" d="M 603 4863 
L 1178 4863 
L 1178 0 
L 603 0 
L 603 4863 
z
" transform="scale(0.015625)"/>
      <path id="DejaVuSans-20" transform="scale(0.015625)"/>
      <path id="DejaVuSans-31" d="M 794 531 
L 1825 531 
L 1825 4091 
L 703 3866 
L 703 4441 
L 1819 4666 
L 2450 4666 
L 2450 531 
L 3481 531 
L 3481 0 
L 794 0 
L 794 531 
z
" transform="scale(0.015625)"/>
      <path id="DejaVuSans-63" d="M 3122 3366 
L 3122 2828 
Q 2878 2963 2633 3030 
Q 2388 3097 2138 3097 
Q 1578 3097 1268 2742 
Q 959 2388 959 1747 
Q 959 1106 1268 751 
Q 1578 397 2138 397 
Q 2388 397 2633 464 
Q 2878 531 3122 666 
L 3122 134 
Q 2881 22 2623 -34 
Q 2366 -91 2075 -91 
Q 1284 -91 818 406 
Q 353 903 353 1747 
Q 353 2603 823 3093 
Q 1294 3584 2113 3584 
Q 2378 3584 2631 3529 
Q 2884 3475 3122 3366 
z
" transform="scale(0.015625)"/>
      <path id="DejaVuSans-69" d="M 603 3500 
L 1178 3500 
L 1178 0 
L 603 0 
L 603 3500 
z
M 603 4863 
L 1178 4863 
L 1178 4134 
L 603 4134 
L 603 4863 
z
" transform="scale(0.015625)"/>
      <path id="DejaVuSans-73" d="M 2834 3397 
L 2834 2853 
Q 2591 2978 2328 3040 
Q 2066 3103 1784 3103 
Q 1356 3103 1142 2972 
Q 928 2841 928 2578 
Q 928 2378 1081 2264 
Q 1234 2150 1697 2047 
L 1894 2003 
Q 2506 1872 2764 1633 
Q 3022 1394 3022 966 
Q 3022 478 2636 193 
Q 2250 -91 1575 -91 
Q 1294 -91 989 -36 
Q 684 19 347 128 
L 347 722 
Q 666 556 975 473 
Q 1284 391 1588 391 
Q 1994 391 2212 530 
Q 2431 669 2431 922 
Q 2431 1156 2273 1281 
Q 2116 1406 1581 1522 
L 1381 1569 
Q 847 1681 609 1914 
Q 372 2147 372 2553 
Q 372 3047 722 3315 
Q 1072 3584 1716 3584 
Q 2034 3584 2315 3537 
Q 2597 3491 2834 3397 
z
" transform="scale(0.015625)"/>
      <path id="DejaVuSans-77" d="M 269 3500 
L 844 3500 
L 1563 769 
L 2278 3500 
L 2956 3500 
L 3675 769 
L 4391 3500 
L 4966 3500 
L 4050 0 
L 3372 0 
L 2619 2869 
L 1863 0 
L 1184 0 
L 269 3500 
z
" transform="scale(0.015625)"/>
      <path id="DejaVuSans-68" d="M 3513 2113 
L 3513 0 
L 2938 0 
L 2938 2094 
Q 2938 2591 2744 2837 
Q 2550 3084 2163 3084 
Q 1697 3084 1428 2787 
Q 1159 2491 1159 1978 
L 1159 0 
L 581 0 
L 581 4863 
L 1159 4863 
L 1159 2956 
Q 1366 3272 1645 3428 
Q 1925 3584 2291 3584 
Q 2894 3584 3203 3211 
Q 3513 2838 3513 2113 
z
" transform="scale(0.015625)"/>
      <path id="DejaVuSans-75" d="M 544 1381 
L 544 3500 
L 1119 3500 
L 1119 1403 
Q 1119 906 1312 657 
Q 1506 409 1894 409 
Q 2359 409 2629 706 
Q 2900 1003 2900 1516 
L 2900 3500 
L 3475 3500 
L 3475 0 
L 2900 0 
L 2900 538 
Q 2691 219 2414 64 
Q 2138 -91 1772 -91 
Q 1169 -91 856 284 
Q 544 659 544 1381 
z
M 1991 3584 
L 1991 3584 
z
" transform="scale(0.015625)"/>
      <path id="DejaVuSans-62" d="M 3116 1747 
Q 3116 2381 2855 2742 
Q 2594 3103 2138 3103 
Q 1681 3103 1420 2742 
Q 1159 2381 1159 1747 
Q 1159 1113 1420 752 
Q 1681 391 2138 391 
Q 2594 391 2855 752 
Q 3116 1113 3116 1747 
z
M 1159 2969 
Q 1341 3281 1617 3432 
Q 1894 3584 2278 3584 
Q 2916 3584 3314 3078 
Q 3713 2572 3713 1747 
Q 3713 922 3314 415 
Q 2916 -91 2278 -91 
Q 1894 -91 1617 61 
Q 1341 213 1159 525 
L 1159 0 
L 581 0 
L 581 4863 
L 1159 4863 
L 1159 2969 
z
" transform="scale(0.015625)"/>
      <path id="DejaVuSans-74" d="M 1172 4494 
L 1172 3500 
L 2356 3500 
L 2356 3053 
L 1172 3053 
L 1172 1153 
Q 1172 725 1289 603 
Q 1406 481 1766 481 
L 2356 481 
L 2356 0 
L 1766 0 
Q 1100 0 847 248 
Q 594 497 594 1153 
L 594 3053 
L 172 3053 
L 172 3500 
L 594 3500 
L 594 4494 
L 1172 4494 
z
" transform="scale(0.015625)"/>
      <path id="DejaVuSans-61" d="M 2194 1759 
Q 1497 1759 1228 1600 
Q 959 1441 959 1056 
Q 959 750 1161 570 
Q 1363 391 1709 391 
Q 2188 391 2477 730 
Q 2766 1069 2766 1631 
L 2766 1759 
L 2194 1759 
z
M 3341 1997 
L 3341 0 
L 2766 0 
L 2766 531 
Q 2569 213 2275 61 
Q 1981 -91 1556 -91 
Q 1019 -91 701 211 
Q 384 513 384 1019 
Q 384 1609 779 1909 
Q 1175 2209 1959 2209 
L 2766 2209 
L 2766 2266 
Q 2766 2663 2505 2880 
Q 2244 3097 1772 3097 
Q 1472 3097 1187 3025 
Q 903 2953 641 2809 
L 641 3341 
Q 956 3463 1253 3523 
Q 1550 3584 1831 3584 
Q 2591 3584 2966 3190 
Q 3341 2797 3341 1997 
z
" transform="scale(0.015625)"/>
      <path id="DejaVuSans-72" d="M 2631 2963 
Q 2534 3019 2420 3045 
Q 2306 3072 2169 3072 
Q 1681 3072 1420 2755 
Q 1159 2438 1159 1844 
L 1159 0 
L 581 0 
L 581 3500 
L 1159 3500 
L 1159 2956 
Q 1341 3275 1631 3429 
Q 1922 3584 2338 3584 
Q 2397 3584 2469 3576 
Q 2541 3569 2628 3553 
L 2631 2963 
z
" transform="scale(0.015625)"/>
      <path id="DejaVuSans-67" d="M 2906 1791 
Q 2906 2416 2648 2759 
Q 2391 3103 1925 3103 
Q 1463 3103 1205 2759 
Q 947 2416 947 1791 
Q 947 1169 1205 825 
Q 1463 481 1925 481 
Q 2391 481 2648 825 
Q 2906 1169 2906 1791 
z
M 3481 434 
Q 3481 -459 3084 -895 
Q 2688 -1331 1869 -1331 
Q 1566 -1331 1297 -1286 
Q 1028 -1241 775 -1147 
L 775 -588 
Q 1028 -725 1275 -790 
Q 1522 -856 1778 -856 
Q 2344 -856 2625 -561 
Q 2906 -266 2906 331 
L 2906 616 
Q 2728 306 2450 153 
Q 2172 0 1784 0 
Q 1141 0 747 490 
Q 353 981 353 1791 
Q 353 2603 747 3093 
Q 1141 3584 1784 3584 
Q 2172 3584 2450 3431 
Q 2728 3278 2906 2969 
L 2906 3500 
L 3481 3500 
L 3481 434 
z
" transform="scale(0.015625)"/>
      <path id="DejaVuSans-2e" d="M 684 794 
L 1344 794 
L 1344 0 
L 684 0 
L 684 794 
z
" transform="scale(0.015625)"/>
      <path id="DejaVuSans-32" d="M 1228 531 
L 3431 531 
L 3431 0 
L 469 0 
L 469 531 
Q 828 903 1448 1529 
Q 2069 2156 2228 2338 
Q 2531 2678 2651 2914 
Q 2772 3150 2772 3378 
Q 2772 3750 2511 3984 
Q 2250 4219 1831 4219 
Q 1534 4219 1204 4116 
Q 875 4013 500 3803 
L 500 4441 
Q 881 4594 1212 4672 
Q 1544 4750 1819 4750 
Q 2544 4750 2975 4387 
Q 3406 4025 3406 3419 
Q 3406 3131 3298 2873 
Q 3191 2616 2906 2266 
Q 2828 2175 2409 1742 
Q 1991 1309 1228 531 
z
" transform="scale(0.015625)"/>
      <path id="DejaVuSans-6e" d="M 3513 2113 
L 3513 0 
L 2938 0 
L 2938 2094 
Q 2938 2591 2744 2837 
Q 2550 3084 2163 3084 
Q 1697 3084 1428 2787 
Q 1159 2491 1159 1978 
L 1159 0 
L 581 0 
L 581 3500 
L 1159 3500 
L 1159 2956 
Q 1366 3272 1645 3428 
Q 1925 3584 2291 3584 
Q 2894 3584 3203 3211 
Q 3513 2838 3513 2113 
z
" transform="scale(0.015625)"/>
      <path id="DejaVuSans-76" d="M 191 3500 
L 800 3500 
L 1894 563 
L 2988 3500 
L 3597 3500 
L 2284 0 
L 1503 0 
L 191 3500 
z
" transform="scale(0.015625)"/>
     </defs>
     <use xlink:href="#DejaVuSans-4d"/>
     <use xlink:href="#DejaVuSans-6f" transform="translate(86.279297 0)"/>
     <use xlink:href="#DejaVuSans-64" transform="translate(147.460938 0)"/>
     <use xlink:href="#DejaVuSans-65" transform="translate(210.9375 0)"/>
     <use xlink:href="#DejaVuSans-6c" transform="translate(272.460938 0)"/>
     <use xlink:href="#DejaVuSans-20" transform="translate(300.244141 0)"/>
     <use xlink:href="#DejaVuSans-31" transform="translate(332.03125 0)"/>
     <use xlink:href="#DejaVuSans-20" transform="translate(395.654297 0)"/>
     <use xlink:href="#DejaVuSans-64" transform="translate(427.441406 0)"/>
     <use xlink:href="#DejaVuSans-65" transform="translate(490.917969 0)"/>
     <use xlink:href="#DejaVuSans-63" transform="translate(552.441406 0)"/>
     <use xlink:href="#DejaVuSans-69" transform="translate(607.421875 0)"/>
     <use xlink:href="#DejaVuSans-64" transform="translate(635.205078 0)"/>
     <use xlink:href="#DejaVuSans-65" transform="translate(698.681641 0)"/>
     <use xlink:href="#DejaVuSans-73" transform="translate(760.205078 0)"/>
     <use xlink:href="#DejaVuSans-20" transform="translate(812.304688 0)"/>
     <use xlink:href="#DejaVuSans-77" transform="translate(844.091797 0)"/>
     <use xlink:href="#DejaVuSans-68" transform="translate(925.878906 0)"/>
     <use xlink:href="#DejaVuSans-6f" transform="translate(989.257812 0)"/>
     <use xlink:href="#DejaVuSans-20" transform="translate(1050.439453 0)"/>
     <use xlink:href="#DejaVuSans-73" transform="translate(1082.226562 0)"/>
     <use xlink:href="#DejaVuSans-68" transform="translate(1134.326172 0)"/>
     <use xlink:href="#DejaVuSans-6f" transform="translate(1197.705078 0)"/>
     <use xlink:href="#DejaVuSans-75" transform="translate(1258.886719 0)"/>
     <use xlink:href="#DejaVuSans-6c" transform="translate(1322.265625 0)"/>
     <use xlink:href="#DejaVuSans-64" transform="translate(1350.048828 0)"/>
     <use xlink:href="#DejaVuSans-20" transform="translate(1413.525391 0)"/>
     <use xlink:href="#DejaVuSans-62" transform="translate(1445.3125 0)"/>
     <use xlink:href="#DejaVuSans-65" transform="translate(1508.789062 0)"/>
     <use xlink:href="#DejaVuSans-20" transform="translate(1570.3125 0)"/>
     <use xlink:href="#DejaVuSans-74" transform="translate(1602.099609 0)"/>
     <use xlink:href="#DejaVuSans-61" transform="translate(1641.308594 0)"/>
     <use xlink:href="#DejaVuSans-72" transform="translate(1702.587891 0)"/>
     <use xlink:href="#DejaVuSans-67" transform="translate(1741.951172 0)"/>
     <use xlink:href="#DejaVuSans-65" transform="translate(1805.427734 0)"/>
     <use xlink:href="#DejaVuSans-74" transform="translate(1866.951172 0)"/>
     <use xlink:href="#DejaVuSans-65" transform="translate(1906.160156 0)"/>
     <use xlink:href="#DejaVuSans-64" transform="translate(1967.683594 0)"/>
     <use xlink:href="#DejaVuSans-2e" transform="translate(2031.160156 0)"/>
     <use xlink:href="#DejaVuSans-20" transform="translate(2062.947266 0)"/>
     <use xlink:href="#DejaVuSans-4d" transform="translate(2094.734375 0)"/>
     <use xlink:href="#DejaVuSans-6f" transform="translate(2181.013672 0)"/>
     <use xlink:href="#DejaVuSans-64" transform="translate(2242.195312 0)"/>
     <use xlink:href="#DejaVuSans-65" transform="translate(2305.671875 0)"/>
     <use xlink:href="#DejaVuSans-6c" transform="translate(2367.195312 0)"/>
     <use xlink:href="#DejaVuSans-20" transform="translate(2394.978516 0)"/>
     <use xlink:href="#DejaVuSans-32" transform="translate(2426.765625 0)"/>
     <use xlink:href="#DejaVuSans-20" transform="translate(2490.388672 0)"/>
     <use xlink:href="#DejaVuSans-64" transform="translate(2522.175781 0)"/>
     <use xlink:href="#DejaVuSans-65" transform="translate(2585.652344 0)"/>
     <use xlink:href="#DejaVuSans-63" transform="translate(2647.175781 0)"/>
     <use xlink:href="#DejaVuSans-69" transform="translate(2702.15625 0)"/>
     <use xlink:href="#DejaVuSans-64" transform="translate(2729.939453 0)"/>
     <use xlink:href="#DejaVuSans-65" transform="translate(2793.416016 0)"/>
     <use xlink:href="#DejaVuSans-73" transform="translate(2854.939453 0)"/>
     <use xlink:href="#DejaVuSans-20" transform="translate(2907.039062 0)"/>
     <use xlink:href="#DejaVuSans-77" transform="translate(2938.826172 0)"/>
     <use xlink:href="#DejaVuSans-68" transform="translate(3020.613281 0)"/>
     <use xlink:href="#DejaVuSans-69" transform="translate(3083.992188 0)"/>
     <use xlink:href="#DejaVuSans-63" transform="translate(3111.775391 0)"/>
     <use xlink:href="#DejaVuSans-68" transform="translate(3166.755859 0)"/>
     <use xlink:href="#DejaVuSans-20" transform="translate(3230.134766 0)"/>
     <use xlink:href="#DejaVuSans-69" transform="translate(3261.921875 0)"/>
     <use xlink:href="#DejaVuSans-6e" transform="translate(3289.705078 0)"/>
     <use xlink:href="#DejaVuSans-74" transform="translate(3353.083984 0)"/>
     <use xlink:href="#DejaVuSans-65" transform="translate(3392.292969 0)"/>
     <use xlink:href="#DejaVuSans-72" transform="translate(3453.816406 0)"/>
     <use xlink:href="#DejaVuSans-76" transform="translate(3494.929688 0)"/>
     <use xlink:href="#DejaVuSans-65" transform="translate(3554.109375 0)"/>
     <use xlink:href="#DejaVuSans-6e" transform="translate(3615.632812 0)"/>
     <use xlink:href="#DejaVuSans-74" transform="translate(3679.011719 0)"/>
     <use xlink:href="#DejaVuSans-69" transform="translate(3718.220703 0)"/>
     <use xlink:href="#DejaVuSans-6f" transform="translate(3746.003906 0)"/>
     <use xlink:href="#DejaVuSans-6e" transform="translate(3807.185547 0)"/>
     <use xlink:href="#DejaVuSans-20" transform="translate(3870.564453 0)"/>
     <use xlink:href="#DejaVuSans-63" transform="translate(3902.351562 0)"/>
     <use xlink:href="#DejaVuSans-72" transform="translate(3957.332031 0)"/>
     <use xlink:href="#DejaVuSans-65" transform="translate(3996.195312 0)"/>
     <use xlink:href="#DejaVuSans-61" transform="translate(4057.71875 0)"/>
     <use xlink:href="#DejaVuSans-74" transform="translate(4118.998047 0)"/>
     <use xlink:href="#DejaVuSans-65" transform="translate(4158.207031 0)"/>
     <use xlink:href="#DejaVuSans-73" transform="translate(4219.730469 0)"/>
     <use xlink:href="#DejaVuSans-20" transform="translate(4271.830078 0)"/>
     <use xlink:href="#DejaVuSans-74" transform="translate(4303.617188 0)"/>
     <use xlink:href="#DejaVuSans-68" transform="translate(4342.826172 0)"/>
     <use xlink:href="#DejaVuSans-65" transform="translate(4406.205078 0)"/>
     <use xlink:href="#DejaVuSans-20" transform="translate(4467.728516 0)"/>
     <use xlink:href="#DejaVuSans-68" transform="translate(4499.515625 0)"/>
     <use xlink:href="#DejaVuSans-69" transform="translate(4562.894531 0)"/>
     <use xlink:href="#DejaVuSans-67" transform="translate(4590.677734 0)"/>
     <use xlink:href="#DejaVuSans-68" transform="translate(4654.154297 0)"/>
     <use xlink:href="#DejaVuSans-65" transform="translate(4717.533203 0)"/>
     <use xlink:href="#DejaVuSans-73" transform="translate(4779.056641 0)"/>
     <use xlink:href="#DejaVuSans-74" transform="translate(4831.15625 0)"/>
     <use xlink:href="#DejaVuSans-20" transform="translate(4870.365234 0)"/>
     <use xlink:href="#DejaVuSans-6e" transform="translate(4902.152344 0)"/>
     <use xlink:href="#DejaVuSans-65" transform="translate(4965.53125 0)"/>
     <use xlink:href="#DejaVuSans-74" transform="translate(5027.054688 0)"/>
     <use xlink:href="#DejaVuSans-20" transform="translate(5066.263672 0)"/>
     <use xlink:href="#DejaVuSans-76" transform="translate(5098.050781 0)"/>
     <use xlink:href="#DejaVuSans-61" transform="translate(5157.230469 0)"/>
     <use xlink:href="#DejaVuSans-6c" transform="translate(5218.509766 0)"/>
     <use xlink:href="#DejaVuSans-75" transform="translate(5246.292969 0)"/>
     <use xlink:href="#DejaVuSans-65" transform="translate(5309.671875 0)"/>
     <use xlink:href="#DejaVuSans-2e" transform="translate(5371.195312 0)"/>
    </g>
    <!-- Observed outcomes then improve future decisions. -->
    <g style="fill: #5a6884" transform="translate(51.84 87.1359) scale(0.12 -0.12)">
     <defs>
      <path id="DejaVuSans-4f" d="M 2522 4238 
Q 1834 4238 1429 3725 
Q 1025 3213 1025 2328 
Q 1025 1447 1429 934 
Q 1834 422 2522 422 
Q 3209 422 3611 934 
Q 4013 1447 4013 2328 
Q 4013 3213 3611 3725 
Q 3209 4238 2522 4238 
z
M 2522 4750 
Q 3503 4750 4090 4092 
Q 4678 3434 4678 2328 
Q 4678 1225 4090 567 
Q 3503 -91 2522 -91 
Q 1538 -91 948 565 
Q 359 1222 359 2328 
Q 359 3434 948 4092 
Q 1538 4750 2522 4750 
z
" transform="scale(0.015625)"/>
      <path id="DejaVuSans-6d" d="M 3328 2828 
Q 3544 3216 3844 3400 
Q 4144 3584 4550 3584 
Q 5097 3584 5394 3201 
Q 5691 2819 5691 2113 
L 5691 0 
L 5113 0 
L 5113 2094 
Q 5113 2597 4934 2840 
Q 4756 3084 4391 3084 
Q 3944 3084 3684 2787 
Q 3425 2491 3425 1978 
L 3425 0 
L 2847 0 
L 2847 2094 
Q 2847 2600 2669 2842 
Q 2491 3084 2119 3084 
Q 1678 3084 1418 2786 
Q 1159 2488 1159 1978 
L 1159 0 
L 581 0 
L 581 3500 
L 1159 3500 
L 1159 2956 
Q 1356 3278 1631 3431 
Q 1906 3584 2284 3584 
Q 2666 3584 2933 3390 
Q 3200 3197 3328 2828 
z
" transform="scale(0.015625)"/>
      <path id="DejaVuSans-70" d="M 1159 525 
L 1159 -1331 
L 581 -1331 
L 581 3500 
L 1159 3500 
L 1159 2969 
Q 1341 3281 1617 3432 
Q 1894 3584 2278 3584 
Q 2916 3584 3314 3078 
Q 3713 2572 3713 1747 
Q 3713 922 3314 415 
Q 2916 -91 2278 -91 
Q 1894 -91 1617 61 
Q 1341 213 1159 525 
z
M 3116 1747 
Q 3116 2381 2855 2742 
Q 2594 3103 2138 3103 
Q 1681 3103 1420 2742 
Q 1159 2381 1159 1747 
Q 1159 1113 1420 752 
Q 1681 391 2138 391 
Q 2594 391 2855 752 
Q 3116 1113 3116 1747 
z
" transform="scale(0.015625)"/>
      <path id="DejaVuSans-66" d="M 2375 4863 
L 2375 4384 
L 1825 4384 
Q 1516 4384 1395 4259 
Q 1275 4134 1275 3809 
L 1275 3500 
L 2222 3500 
L 2222 3053 
L 1275 3053 
L 1275 0 
L 697 0 
L 697 3053 
L 147 3053 
L 147 3500 
L 697 3500 
L 697 3744 
Q 697 4328 969 4595 
Q 1241 4863 1831 4863 
L 2375 4863 
z
" transform="scale(0.015625)"/>
     </defs>
     <use xlink:href="#DejaVuSans-4f"/>
     <use xlink:href="#DejaVuSans-62" transform="translate(78.710938 0)"/>
     <use xlink:href="#DejaVuSans-73" transform="translate(142.1875 0)"/>
     <use xlink:href="#DejaVuSans-65" transform="translate(194.287109 0)"/>
     <use xlink:href="#DejaVuSans-72" transform="translate(255.810547 0)"/>
     <use xlink:href="#DejaVuSans-76" transform="translate(296.923828 0)"/>
     <use xlink:href="#DejaVuSans-65" transform="translate(356.103516 0)"/>
     <use xlink:href="#DejaVuSans-64" transform="translate(417.626953 0)"/>
     <use xlink:href="#DejaVuSans-20" transform="translate(481.103516 0)"/>
     <use xlink:href="#DejaVuSans-6f" transform="translate(512.890625 0)"/>
     <use xlink:href="#DejaVuSans-75" transform="translate(574.072266 0)"/>
     <use xlink:href="#DejaVuSans-74" transform="translate(637.451172 0)"/>
     <use xlink:href="#DejaVuSans-63" transform="translate(676.660156 0)"/>
     <use xlink:href="#DejaVuSans-6f" transform="translate(731.640625 0)"/>
     <use xlink:href="#DejaVuSans-6d" transform="translate(792.822266 0)"/>
     <use xlink:href="#DejaVuSans-65" transform="translate(890.234375 0)"/>
     <use xlink:href="#DejaVuSans-73" transform="translate(951.757812 0)"/>
     <use xlink:href="#DejaVuSans-20" transform="translate(1003.857422 0)"/>
     <use xlink:href="#DejaVuSans-74" transform="translate(1035.644531 0)"/>
     <use xlink:href="#DejaVuSans-68" transform="translate(1074.853516 0)"/>
     <use xlink:href="#DejaVuSans-65" transform="translate(1138.232422 0)"/>
     <use xlink:href="#DejaVuSans-6e" transform="translate(1199.755859 0)"/>
     <use xlink:href="#DejaVuSans-20" transform="translate(1263.134766 0)"/>
     <use xlink:href="#DejaVuSans-69" transform="translate(1294.921875 0)"/>
     <use xlink:href="#DejaVuSans-6d" transform="translate(1322.705078 0)"/>
     <use xlink:href="#DejaVuSans-70" transform="translate(1420.117188 0)"/>
     <use xlink:href="#DejaVuSans-72" transform="translate(1483.59375 0)"/>
     <use xlink:href="#DejaVuSans-6f" transform="translate(1522.457031 0)"/>
     <use xlink:href="#DejaVuSans-76" transform="translate(1583.638672 0)"/>
     <use xlink:href="#DejaVuSans-65" transform="translate(1642.818359 0)"/>
     <use xlink:href="#DejaVuSans-20" transform="translate(1704.341797 0)"/>
     <use xlink:href="#DejaVuSans-66" transform="translate(1736.128906 0)"/>
     <use xlink:href="#DejaVuSans-75" transform="translate(1771.333984 0)"/>
     <use xlink:href="#DejaVuSans-74" transform="translate(1834.712891 0)"/>
     <use xlink:href="#DejaVuSans-75" transform="translate(1873.921875 0)"/>
     <use xlink:href="#DejaVuSans-72" transform="translate(1937.300781 0)"/>
     <use xlink:href="#DejaVuSans-65" transform="translate(1976.164062 0)"/>
     <use xlink:href="#DejaVuSans-20" transform="translate(2037.6875 0)"/>
     <use xlink:href="#DejaVuSans-64" transform="translate(2069.474609 0)"/>
     <use xlink:href="#DejaVuSans-65" transform="translate(2132.951172 0)"/>
     <use xlink:href="#DejaVuSans-63" transform="translate(2194.474609 0)"/>
     <use xlink:href="#DejaVuSans-69" transform="translate(2249.455078 0)"/>
     <use xlink:href="#DejaVuSans-73" transform="translate(2277.238281 0)"/>
     <use xlink:href="#DejaVuSans-69" transform="translate(2329.337891 0)"/>
     <use xlink:href="#DejaVuSans-6f" transform="translate(2357.121094 0)"/>
     <use xlink:href="#DejaVuSans-6e" transform="translate(2418.302734 0)"/>
     <use xlink:href="#DejaVuSans-73" transform="translate(2481.681641 0)"/>
     <use xlink:href="#DejaVuSans-2e" transform="translate(2533.78125 0)"/>
    </g>
   </g>
   <g id="patch_13">
    <path d="M 69.696 192.81312 
L 194.688 192.81312 
Q 230.4 192.81312 230.4 172.85472 
L 230.4 181.836 
Q 230.4 161.8776 194.688 161.8776 
L 69.696 161.8776 
Q 33.984 161.8776 33.984 181.836 
L 33.984 172.85472 
Q 33.984 192.81312 69.696 192.81312 
z
" clip-path="url(#pf126c46f1f)" style="fill: #68a7f0"/>
   </g>
   <g id="patch_14">
    <path d="M 100.944 230.23512 
C 108.520746 230.23512 115.788189 228.552766 121.145758 225.558576 
C 126.503327 222.564386 129.5136 218.502824 129.5136 214.2684 
C 129.5136 210.033976 126.503327 205.972414 121.145758 202.978224 
C 115.788189 199.984034 108.520746 198.30168 100.944 198.30168 
C 93.367254 198.30168 86.099811 199.984034 80.742242 202.978224 
C 75.384673 205.972414 72.3744 210.033976 72.3744 214.2684 
C 72.3744 218.502824 75.384673 222.564386 80.742242 225.558576 
C 86.099811 228.552766 93.367254 230.23512 100.944 230.23512 
z
" clip-path="url(#pf126c46f1f)" style="fill: #68a7f0; opacity: 0.14"/>
   </g>
   <g id="patch_15">
    <path d="M 270.576 192.81312 
L 422.352 192.81312 
Q 458.064 192.81312 458.064 172.85472 
L 458.064 181.836 
Q 458.064 161.8776 422.352 161.8776 
L 270.576 161.8776 
Q 234.864 161.8776 234.864 181.836 
L 234.864 172.85472 
Q 234.864 192.81312 270.576 192.81312 
z
" clip-path="url(#pf126c46f1f)" style="fill: #101a36"/>
   </g>
   <g id="patch_16">
    <path d="M 301.824 230.23512 
C 309.400746 230.23512 316.668189 228.552766 322.025758 225.558576 
C 327.383327 222.564386 330.3936 218.502824 330.3936 214.2684 
C 330.3936 210.033976 327.383327 205.972414 322.025758 202.978224 
C 316.668189 199.984034 309.400746 198.30168 301.824 198.30168 
C 294.247254 198.30168 286.979811 199.984034 281.622242 202.978224 
C 276.264673 205.972414 273.2544 210.033976 273.2544 214.2684 
C 273.2544 218.502824 276.264673 222.564386 281.622242 225.558576 
C 286.979811 228.552766 294.247254 230.23512 301.824 230.23512 
z
" clip-path="url(#pf126c46f1f)" style="fill: #101a36; opacity: 0.14"/>
   </g>
   <g id="patch_17">
    <path d="M 498.24 192.81312 
L 623.232 192.81312 
Q 658.944 192.81312 658.944 172.85472 
L 658.944 181.836 
Q 658.944 161.8776 623.232 161.8776 
L 498.24 161.8776 
Q 462.528 161.8776 462.528 181.836 
L 462.528 172.85472 
Q 462.528 192.81312 498.24 192.81312 
z
" clip-path="url(#pf126c46f1f)" style="fill: #aeb9ee"/>
   </g>
   <g id="patch_18">
    <path d="M 529.488 230.23512 
C 537.064746 230.23512 544.332189 228.552766 549.689758 225.558576 
C 555.047327 222.564386 558.0576 218.502824 558.0576 214.2684 
C 558.0576 210.033976 555.047327 205.972414 549.689758 202.978224 
C 544.332189 199.984034 537.064746 198.30168 529.488 198.30168 
C 521.911254 198.30168 514.643811 199.984034 509.286242 202.978224 
C 503.928673 205.972414 500.9184 210.033976 500.9184 214.2684 
C 500.9184 218.502824 503.928673 222.564386 509.286242 225.558576 
C 514.643811 228.552766 521.911254 230.23512 529.488 230.23512 
z
" clip-path="url(#pf126c46f1f)" style="fill: #aeb9ee; opacity: 0.14"/>
   </g>
   <g id="patch_19">
    <path d="M 694.656 192.81312 
L 828.576 192.81312 
Q 864.288 192.81312 864.288 172.85472 
L 864.288 181.836 
Q 864.288 161.8776 828.576 161.8776 
L 694.656 161.8776 
Q 658.944 161.8776 658.944 181.836 
L 658.944 172.85472 
Q 658.944 192.81312 694.656 192.81312 
z
" clip-path="url(#pf126c46f1f)" style="fill: #d7ddf4"/>
   </g>
   <g id="patch_20">
    <path d="M 725.904 230.23512 
C 733.480746 230.23512 740.748189 228.552766 746.105758 225.558576 
C 751.463327 222.564386 754.4736 218.502824 754.4736 214.2684 
C 754.4736 210.033976 751.463327 205.972414 746.105758 202.978224 
C 740.748189 199.984034 733.480746 198.30168 725.904 198.30168 
C 718.327254 198.30168 711.059811 199.984034 705.702242 202.978224 
C 700.344673 205.972414 697.3344 210.033976 697.3344 214.2684 
C 697.3344 218.502824 700.344673 222.564386 705.702242 225.558576 
C 711.059811 228.552766 718.327254 230.23512 725.904 230.23512 
z
" clip-path="url(#pf126c46f1f)" style="fill: #d7ddf4; opacity: 0.14"/>
   </g>
   <g id="text_3">
    <!-- policy update from real reward -->
    <g style="fill: #61708b" transform="translate(475.909672 424.372113) scale(0.11 -0.11)">
     <defs>
      <path id="DejaVuSans-79" d="M 2059 -325 
Q 1816 -950 1584 -1140 
Q 1353 -1331 966 -1331 
L 506 -1331 
L 506 -850 
L 844 -850 
Q 1081 -850 1212 -737 
Q 1344 -625 1503 -206 
L 1606 56 
L 191 3500 
L 800 3500 
L 1894 763 
L 2988 3500 
L 3597 3500 
L 2059 -325 
z
" transform="scale(0.015625)"/>
     </defs>
     <use xlink:href="#DejaVuSans-70"/>
     <use xlink:href="#DejaVuSans-6f" transform="translate(63.476562 0)"/>
     <use xlink:href="#DejaVuSans-6c" transform="translate(124.658203 0)"/>
     <use xlink:href="#DejaVuSans-69" transform="translate(152.441406 0)"/>
     <use xlink:href="#DejaVuSans-63" transform="translate(180.224609 0)"/>
     <use xlink:href="#DejaVuSans-79" transform="translate(235.205078 0)"/>
     <use xlink:href="#DejaVuSans-20" transform="translate(294.384766 0)"/>
     <use xlink:href="#DejaVuSans-75" transform="translate(326.171875 0)"/>
     <use xlink:href="#DejaVuSans-70" transform="translate(389.550781 0)"/>
     <use xlink:href="#DejaVuSans-64" transform="translate(453.027344 0)"/>
     <use xlink:href="#DejaVuSans-61" transform="translate(516.503906 0)"/>
     <use xlink:href="#DejaVuSans-74" transform="translate(577.783203 0)"/>
     <use xlink:href="#DejaVuSans-65" transform="translate(616.992188 0)"/>
     <use xlink:href="#DejaVuSans-20" transform="translate(678.515625 0)"/>
     <use xlink:href="#DejaVuSans-66" transform="translate(710.302734 0)"/>
     <use xlink:href="#DejaVuSans-72" transform="translate(745.507812 0)"/>
     <use xlink:href="#DejaVuSans-6f" transform="translate(784.371094 0)"/>
     <use xlink:href="#DejaVuSans-6d" transform="translate(845.552734 0)"/>
     <use xlink:href="#DejaVuSans-20" transform="translate(942.964844 0)"/>
     <use xlink:href="#DejaVuSans-72" transform="translate(974.751953 0)"/>
     <use xlink:href="#DejaVuSans-65" transform="translate(1013.615234 0)"/>
     <use xlink:href="#DejaVuSans-61" transform="translate(1075.138672 0)"/>
     <use xlink:href="#DejaVuSans-6c" transform="translate(1136.417969 0)"/>
     <use xlink:href="#DejaVuSans-20" transform="translate(1164.201172 0)"/>
     <use xlink:href="#DejaVuSans-72" transform="translate(1195.988281 0)"/>
     <use xlink:href="#DejaVuSans-65" transform="translate(1234.851562 0)"/>
     <use xlink:href="#DejaVuSans-77" transform="translate(1296.375 0)"/>
     <use xlink:href="#DejaVuSans-61" transform="translate(1378.162109 0)"/>
     <use xlink:href="#DejaVuSans-72" transform="translate(1439.441406 0)"/>
     <use xlink:href="#DejaVuSans-64" transform="translate(1478.804688 0)"/>
    </g>
   </g>
   <g id="patch_21">
    <path d="M 100.944 223.24968 
C 105.20592 223.24968 109.293856 222.303356 112.307489 220.619124 
C 115.321121 218.934892 117.0144 216.650263 117.0144 214.2684 
C 117.0144 211.886537 115.321121 209.601908 112.307489 207.917676 
C 109.293856 206.233444 105.20592 205.28712 100.944 205.28712 
C 96.68208 205.28712 92.594144 206.233444 89.580511 207.917676 
C 86.566879 209.601908 84.8736 211.886537 84.8736 214.2684 
C 84.8736 216.650263 86.566879 218.934892 89.580511 220.619124 
C 92.594144 222.303356 96.68208 223.24968 100.944 223.24968 
z
" clip-path="url(#pf126c46f1f)" style="fill: #68a7f0; stroke: #ffffff; stroke-linejoin: miter"/>
   </g>
   <g id="patch_22">
    <path d="M 301.824 223.24968 
C 306.08592 223.24968 310.173856 222.303356 313.187489 220.619124 
C 316.201121 218.934892 317.8944 216.650263 317.8944 214.2684 
C 317.8944 211.886537 316.201121 209.601908 313.187489 207.917676 
C 310.173856 206.233444 306.08592 205.28712 301.824 205.28712 
C 297.56208 205.28712 293.474144 206.233444 290.460511 207.917676 
C 287.446879 209.601908 285.7536 211.886537 285.7536 214.2684 
C 285.7536 216.650263 287.446879 218.934892 290.460511 220.619124 
C 293.474144 222.303356 297.56208 223.24968 301.824 223.24968 
z
" clip-path="url(#pf126c46f1f)" style="fill: #101a36; stroke: #ffffff; stroke-linejoin: miter"/>
   </g>
   <g id="patch_23">
    <path d="M 529.488 223.24968 
C 533.74992 223.24968 537.837856 222.303356 540.851489 220.619124 
C 543.865121 218.934892 545.5584 216.650263 545.5584 214.2684 
C 545.5584 211.886537 543.865121 209.601908 540.851489 207.917676 
C 537.837856 206.233444 533.74992 205.28712 529.488 205.28712 
C 525.22608 205.28712 521.138144 206.233444 518.124511 207.917676 
C 515.110879 209.601908 513.4176 211.886537 513.4176 214.2684 
C 513.4176 216.650263 515.110879 218.934892 518.124511 220.619124 
C 521.138144 222.303356 525.22608 223.24968 529.488 223.24968 
z
" clip-path="url(#pf126c46f1f)" style="fill: #aeb9ee; stroke: #ffffff; stroke-linejoin: miter"/>
   </g>
   <g id="patch_24">
    <path d="M 725.904 223.24968 
C 730.16592 223.24968 734.253856 222.303356 737.267489 220.619124 
C 740.281121 218.934892 741.9744 216.650263 741.9744 214.2684 
C 741.9744 211.886537 740.281121 209.601908 737.267489 207.917676 
C 734.253856 206.233444 730.16592 205.28712 725.904 205.28712 
C 721.64208 205.28712 717.554144 206.233444 714.540511 207.917676 
C 711.526879 209.601908 709.8336 211.886537 709.8336 214.2684 
C 709.8336 216.650263 711.526879 218.934892 714.540511 220.619124 
C 717.554144 222.303356 721.64208 223.24968 725.904 223.24968 
z
" clip-path="url(#pf126c46f1f)" style="fill: #d7ddf4; stroke: #ffffff; stroke-linejoin: miter"/>
   </g>
   <g id="patch_25">
    <path d="M 217.218449 184.3308 
Q 231.738885 184.3308 243.799647 184.3308 
" clip-path="url(#pf126c46f1f)" style="fill: none; opacity: 0.95; stroke: #7fa7db; stroke-width: 2.2; stroke-linecap: round"/>
    <path d="M 237.399647 181.1308 
L 243.799647 184.3308 
L 237.399647 187.5308 
z
" clip-path="url(#pf126c46f1f)" style="fill: #7fa7db; opacity: 0.95; stroke: #7fa7db; stroke-width: 2.2; stroke-linecap: round"/>
   </g>
   <g id="patch_26">
    <path d="M 444.882449 184.3308 
Q 459.402885 184.3308 471.463647 184.3308 
" clip-path="url(#pf126c46f1f)" style="fill: none; opacity: 0.95; stroke: #8f9fe3; stroke-width: 2.2; stroke-linecap: round"/>
    <path d="M 465.063647 181.1308 
L 471.463647 184.3308 
L 465.063647 187.5308 
z
" clip-path="url(#pf126c46f1f)" style="fill: #8f9fe3; opacity: 0.95; stroke: #8f9fe3; stroke-width: 2.2; stroke-linecap: round"/>
   </g>
   <g id="patch_27">
    <path d="M 645.768988 184.3308 
Q 659.39031 184.3308 670.551957 184.3308 
" clip-path="url(#pf126c46f1f)" style="fill: none; opacity: 0.95; stroke: #bcc6eb; stroke-width: 2.2; stroke-linecap: round"/>
    <path d="M 664.151957 181.1308 
L 670.551957 184.3308 
L 664.151957 187.5308 
z
" clip-path="url(#pf126c46f1f)" style="fill: #bcc6eb; opacity: 0.95; stroke: #bcc6eb; stroke-width: 2.2; stroke-linecap: round"/>
   </g>
   <g id="patch_28">
    <path d="M 773.698621 323.05894 
Q 565.197957 563.410295 358.748629 325.418976 
" clip-path="url(#pf126c46f1f)" style="fill: none; opacity: 0.9; stroke: #93a7cf; stroke-width: 2.8; stroke-linecap: round"/>
    <path d="M 360.747206 333.216776 
L 358.748629 325.418976 
L 366.186015 328.498795 
z
" clip-path="url(#pf126c46f1f)" style="fill: #93a7cf; opacity: 0.9; stroke: #93a7cf; stroke-width: 2.8; stroke-linecap: round"/>
   </g>
   <g id="text_4">
    <!-- Aktivacija -->
    <g style="fill: #15233b" transform="translate(141.12 210.864469) scale(0.15 -0.15)">
     <defs>
      <path id="DejaVuSans-Bold-41" d="M 3419 850 
L 1538 850 
L 1241 0 
L 31 0 
L 1759 4666 
L 3194 4666 
L 4922 0 
L 3713 0 
L 3419 850 
z
M 1838 1716 
L 3116 1716 
L 2478 3572 
L 1838 1716 
z
" transform="scale(0.015625)"/>
      <path id="DejaVuSans-Bold-76" d="M 97 3500 
L 1216 3500 
L 2088 1081 
L 2956 3500 
L 4078 3500 
L 2700 0 
L 1472 0 
L 97 3500 
z
" transform="scale(0.015625)"/>
      <path id="DejaVuSans-Bold-63" d="M 3366 3391 
L 3366 2478 
Q 3138 2634 2908 2709 
Q 2678 2784 2431 2784 
Q 1963 2784 1702 2511 
Q 1441 2238 1441 1747 
Q 1441 1256 1702 982 
Q 1963 709 2431 709 
Q 2694 709 2930 787 
Q 3166 866 3366 1019 
L 3366 103 
Q 3103 6 2833 -42 
Q 2563 -91 2291 -91 
Q 1344 -91 809 395 
Q 275 881 275 1747 
Q 275 2613 809 3098 
Q 1344 3584 2291 3584 
Q 2566 3584 2833 3536 
Q 3100 3488 3366 3391 
z
" transform="scale(0.015625)"/>
      <path id="DejaVuSans-Bold-6a" d="M 538 3500 
L 1656 3500 
L 1656 63 
Q 1656 -641 1318 -1011 
Q 981 -1381 341 -1381 
L -213 -1381 
L -213 -647 
L -19 -647 
Q 300 -647 419 -503 
Q 538 -359 538 63 
L 538 3500 
z
M 538 4863 
L 1656 4863 
L 1656 3950 
L 538 3950 
L 538 4863 
z
" transform="scale(0.015625)"/>
     </defs>
     <use xlink:href="#DejaVuSans-Bold-41"/>
     <use xlink:href="#DejaVuSans-Bold-6b" transform="translate(77.392578 0)"/>
     <use xlink:href="#DejaVuSans-Bold-74" transform="translate(143.896484 0)"/>
     <use xlink:href="#DejaVuSans-Bold-69" transform="translate(191.699219 0)"/>
     <use xlink:href="#DejaVuSans-Bold-76" transform="translate(225.976562 0)"/>
     <use xlink:href="#DejaVuSans-Bold-61" transform="translate(291.162109 0)"/>
     <use xlink:href="#DejaVuSans-Bold-63" transform="translate(358.642578 0)"/>
     <use xlink:href="#DejaVuSans-Bold-69" transform="translate(417.919922 0)"/>
     <use xlink:href="#DejaVuSans-Bold-6a" transform="translate(452.197266 0)"/>
     <use xlink:href="#DejaVuSans-Bold-61" transform="translate(486.474609 0)"/>
    </g>
   </g>
   <g id="text_5">
    <!-- Model 1 · churn risk gate -->
    <g style="fill: #53627d" transform="translate(141.12 233.548643) scale(0.102 -0.102)">
     <defs>
      <path id="DejaVuSans-b7" d="M 684 2619 
L 1344 2619 
L 1344 1825 
L 684 1825 
L 684 2619 
z
" transform="scale(0.015625)"/>
      <path id="DejaVuSans-6b" d="M 581 4863 
L 1159 4863 
L 1159 1991 
L 2875 3500 
L 3609 3500 
L 1753 1863 
L 3688 0 
L 2938 0 
L 1159 1709 
L 1159 0 
L 581 0 
L 581 4863 
z
" transform="scale(0.015625)"/>
     </defs>
     <use xlink:href="#DejaVuSans-4d"/>
     <use xlink:href="#DejaVuSans-6f" transform="translate(86.279297 0)"/>
     <use xlink:href="#DejaVuSans-64" transform="translate(147.460938 0)"/>
     <use xlink:href="#DejaVuSans-65" transform="translate(210.9375 0)"/>
     <use xlink:href="#DejaVuSans-6c" transform="translate(272.460938 0)"/>
     <use xlink:href="#DejaVuSans-20" transform="translate(300.244141 0)"/>
     <use xlink:href="#DejaVuSans-31" transform="translate(332.03125 0)"/>
     <use xlink:href="#DejaVuSans-20" transform="translate(395.654297 0)"/>
     <use xlink:href="#DejaVuSans-b7" transform="translate(427.441406 0)"/>
     <use xlink:href="#DejaVuSans-20" transform="translate(459.228516 0)"/>
     <use xlink:href="#DejaVuSans-63" transform="translate(491.015625 0)"/>
     <use xlink:href="#DejaVuSans-68" transform="translate(545.996094 0)"/>
     <use xlink:href="#DejaVuSans-75" transform="translate(609.375 0)"/>
     <use xlink:href="#DejaVuSans-72" transform="translate(672.753906 0)"/>
     <use xlink:href="#DejaVuSans-6e" transform="translate(712.117188 0)"/>
     <use xlink:href="#DejaVuSans-20" transform="translate(775.496094 0)"/>
     <use xlink:href="#DejaVuSans-72" transform="translate(807.283203 0)"/>
     <use xlink:href="#DejaVuSans-69" transform="translate(848.396484 0)"/>
     <use xlink:href="#DejaVuSans-73" transform="translate(876.179688 0)"/>
     <use xlink:href="#DejaVuSans-6b" transform="translate(928.279297 0)"/>
     <use xlink:href="#DejaVuSans-20" transform="translate(986.189453 0)"/>
     <use xlink:href="#DejaVuSans-67" transform="translate(1017.976562 0)"/>
     <use xlink:href="#DejaVuSans-61" transform="translate(1081.453125 0)"/>
     <use xlink:href="#DejaVuSans-74" transform="translate(1142.732422 0)"/>
     <use xlink:href="#DejaVuSans-65" transform="translate(1181.941406 0)"/>
    </g>
   </g>
   <g id="text_6">
    <!-- r(x) &gt; t activates at-risk clients -->
    <g style="fill: #22304a" transform="translate(87.552 269.390981) scale(0.099 -0.099)">
     <defs>
      <path id="DejaVuSans-28" d="M 1984 4856 
Q 1566 4138 1362 3434 
Q 1159 2731 1159 2009 
Q 1159 1288 1364 580 
Q 1569 -128 1984 -844 
L 1484 -844 
Q 1016 -109 783 600 
Q 550 1309 550 2009 
Q 550 2706 781 3412 
Q 1013 4119 1484 4856 
L 1984 4856 
z
" transform="scale(0.015625)"/>
      <path id="DejaVuSans-78" d="M 3513 3500 
L 2247 1797 
L 3578 0 
L 2900 0 
L 1881 1375 
L 863 0 
L 184 0 
L 1544 1831 
L 300 3500 
L 978 3500 
L 1906 2253 
L 2834 3500 
L 3513 3500 
z
" transform="scale(0.015625)"/>
      <path id="DejaVuSans-29" d="M 513 4856 
L 1013 4856 
Q 1481 4119 1714 3412 
Q 1947 2706 1947 2009 
Q 1947 1309 1714 600 
Q 1481 -109 1013 -844 
L 513 -844 
Q 928 -128 1133 580 
Q 1338 1288 1338 2009 
Q 1338 2731 1133 3434 
Q 928 4138 513 4856 
z
" transform="scale(0.015625)"/>
      <path id="DejaVuSans-3e" d="M 678 3150 
L 678 3719 
L 4684 2266 
L 4684 1747 
L 678 294 
L 678 863 
L 3897 2003 
L 678 3150 
z
" transform="scale(0.015625)"/>
      <path id="DejaVuSans-2d" d="M 313 2009 
L 1997 2009 
L 1997 1497 
L 313 1497 
L 313 2009 
z
" transform="scale(0.015625)"/>
     </defs>
     <use xlink:href="#DejaVuSans-72"/>
     <use xlink:href="#DejaVuSans-28" transform="translate(41.113281 0)"/>
     <use xlink:href="#DejaVuSans-78" transform="translate(80.126953 0)"/>
     <use xlink:href="#DejaVuSans-29" transform="translate(139.306641 0)"/>
     <use xlink:href="#DejaVuSans-20" transform="translate(178.320312 0)"/>
     <use xlink:href="#DejaVuSans-3e" transform="translate(210.107422 0)"/>
     <use xlink:href="#DejaVuSans-20" transform="translate(293.896484 0)"/>
     <use xlink:href="#DejaVuSans-74" transform="translate(325.683594 0)"/>
     <use xlink:href="#DejaVuSans-20" transform="translate(364.892578 0)"/>
     <use xlink:href="#DejaVuSans-61" transform="translate(396.679688 0)"/>
     <use xlink:href="#DejaVuSans-63" transform="translate(457.958984 0)"/>
     <use xlink:href="#DejaVuSans-74" transform="translate(512.939453 0)"/>
     <use xlink:href="#DejaVuSans-69" transform="translate(552.148438 0)"/>
     <use xlink:href="#DejaVuSans-76" transform="translate(579.931641 0)"/>
     <use xlink:href="#DejaVuSans-61" transform="translate(639.111328 0)"/>
     <use xlink:href="#DejaVuSans-74" transform="translate(700.390625 0)"/>
     <use xlink:href="#DejaVuSans-65" transform="translate(739.599609 0)"/>
     <use xlink:href="#DejaVuSans-73" transform="translate(801.123047 0)"/>
     <use xlink:href="#DejaVuSans-20" transform="translate(853.222656 0)"/>
     <use xlink:href="#DejaVuSans-61" transform="translate(885.009766 0)"/>
     <use xlink:href="#DejaVuSans-74" transform="translate(946.289062 0)"/>
     <use xlink:href="#DejaVuSans-2d" transform="translate(985.498047 0)"/>
     <use xlink:href="#DejaVuSans-72" transform="translate(1021.582031 0)"/>
     <use xlink:href="#DejaVuSans-69" transform="translate(1062.695312 0)"/>
     <use xlink:href="#DejaVuSans-73" transform="translate(1090.478516 0)"/>
     <use xlink:href="#DejaVuSans-6b" transform="translate(1142.578125 0)"/>
     <use xlink:href="#DejaVuSans-20" transform="translate(1200.488281 0)"/>
     <use xlink:href="#DejaVuSans-63" transform="translate(1232.275391 0)"/>
     <use xlink:href="#DejaVuSans-6c" transform="translate(1287.255859 0)"/>
     <use xlink:href="#DejaVuSans-69" transform="translate(1315.039062 0)"/>
     <use xlink:href="#DejaVuSans-65" transform="translate(1342.822266 0)"/>
     <use xlink:href="#DejaVuSans-6e" transform="translate(1404.345703 0)"/>
     <use xlink:href="#DejaVuSans-74" transform="translate(1467.724609 0)"/>
     <use xlink:href="#DejaVuSans-73" transform="translate(1506.933594 0)"/>
    </g>
   </g>
   <g id="text_7">
    <!-- 20 relationship + behavior features -->
    <g style="fill: #22304a" transform="translate(87.552 296.833781) scale(0.099 -0.099)">
     <defs>
      <path id="DejaVuSans-30" d="M 2034 4250 
Q 1547 4250 1301 3770 
Q 1056 3291 1056 2328 
Q 1056 1369 1301 889 
Q 1547 409 2034 409 
Q 2525 409 2770 889 
Q 3016 1369 3016 2328 
Q 3016 3291 2770 3770 
Q 2525 4250 2034 4250 
z
M 2034 4750 
Q 2819 4750 3233 4129 
Q 3647 3509 3647 2328 
Q 3647 1150 3233 529 
Q 2819 -91 2034 -91 
Q 1250 -91 836 529 
Q 422 1150 422 2328 
Q 422 3509 836 4129 
Q 1250 4750 2034 4750 
z
" transform="scale(0.015625)"/>
      <path id="DejaVuSans-2b" d="M 2944 4013 
L 2944 2272 
L 4684 2272 
L 4684 1741 
L 2944 1741 
L 2944 0 
L 2419 0 
L 2419 1741 
L 678 1741 
L 678 2272 
L 2419 2272 
L 2419 4013 
L 2944 4013 
z
" transform="scale(0.015625)"/>
     </defs>
     <use xlink:href="#DejaVuSans-32"/>
     <use xlink:href="#DejaVuSans-30" transform="translate(63.623047 0)"/>
     <use xlink:href="#DejaVuSans-20" transform="translate(127.246094 0)"/>
     <use xlink:href="#DejaVuSans-72" transform="translate(159.033203 0)"/>
     <use xlink:href="#DejaVuSans-65" transform="translate(197.896484 0)"/>
     <use xlink:href="#DejaVuSans-6c" transform="translate(259.419922 0)"/>
     <use xlink:href="#DejaVuSans-61" transform="translate(287.203125 0)"/>
     <use xlink:href="#DejaVuSans-74" transform="translate(348.482422 0)"/>
     <use xlink:href="#DejaVuSans-69" transform="translate(387.691406 0)"/>
     <use xlink:href="#DejaVuSans-6f" transform="translate(415.474609 0)"/>
     <use xlink:href="#DejaVuSans-6e" transform="translate(476.65625 0)"/>
     <use xlink:href="#DejaVuSans-73" transform="translate(540.035156 0)"/>
     <use xlink:href="#DejaVuSans-68" transform="translate(592.134766 0)"/>
     <use xlink:href="#DejaVuSans-69" transform="translate(655.513672 0)"/>
     <use xlink:href="#DejaVuSans-70" transform="translate(683.296875 0)"/>
     <use xlink:href="#DejaVuSans-20" transform="translate(746.773438 0)"/>
     <use xlink:href="#DejaVuSans-2b" transform="translate(778.560547 0)"/>
     <use xlink:href="#DejaVuSans-20" transform="translate(862.349609 0)"/>
     <use xlink:href="#DejaVuSans-62" transform="translate(894.136719 0)"/>
     <use xlink:href="#DejaVuSans-65" transform="translate(957.613281 0)"/>
     <use xlink:href="#DejaVuSans-68" transform="translate(1019.136719 0)"/>
     <use xlink:href="#DejaVuSans-61" transform="translate(1082.515625 0)"/>
     <use xlink:href="#DejaVuSans-76" transform="translate(1143.794922 0)"/>
     <use xlink:href="#DejaVuSans-69" transform="translate(1202.974609 0)"/>
     <use xlink:href="#DejaVuSans-6f" transform="translate(1230.757812 0)"/>
     <use xlink:href="#DejaVuSans-72" transform="translate(1291.939453 0)"/>
     <use xlink:href="#DejaVuSans-20" transform="translate(1333.052734 0)"/>
     <use xlink:href="#DejaVuSans-66" transform="translate(1364.839844 0)"/>
     <use xlink:href="#DejaVuSans-65" transform="translate(1400.044922 0)"/>
     <use xlink:href="#DejaVuSans-61" transform="translate(1461.568359 0)"/>
     <use xlink:href="#DejaVuSans-74" transform="translate(1522.847656 0)"/>
     <use xlink:href="#DejaVuSans-75" transform="translate(1562.056641 0)"/>
     <use xlink:href="#DejaVuSans-72" transform="translate(1625.435547 0)"/>
     <use xlink:href="#DejaVuSans-65" transform="translate(1664.298828 0)"/>
     <use xlink:href="#DejaVuSans-73" transform="translate(1725.822266 0)"/>
    </g>
   </g>
   <g id="text_8">
    <!-- balance · recency · contacts -->
    <g style="fill: #22304a" transform="translate(87.552 324.276581) scale(0.099 -0.099)">
     <use xlink:href="#DejaVuSans-62"/>
     <use xlink:href="#DejaVuSans-61" transform="translate(63.476562 0)"/>
     <use xlink:href="#DejaVuSans-6c" transform="translate(124.755859 0)"/>
     <use xlink:href="#DejaVuSans-61" transform="translate(152.539062 0)"/>
     <use xlink:href="#DejaVuSans-6e" transform="translate(213.818359 0)"/>
     <use xlink:href="#DejaVuSans-63" transform="translate(277.197266 0)"/>
     <use xlink:href="#DejaVuSans-65" transform="translate(332.177734 0)"/>
     <use xlink:href="#DejaVuSans-20" transform="translate(393.701172 0)"/>
     <use xlink:href="#DejaVuSans-b7" transform="translate(425.488281 0)"/>
     <use xlink:href="#DejaVuSans-20" transform="translate(457.275391 0)"/>
     <use xlink:href="#DejaVuSans-72" transform="translate(489.0625 0)"/>
     <use xlink:href="#DejaVuSans-65" transform="translate(527.925781 0)"/>
     <use xlink:href="#DejaVuSans-63" transform="translate(589.449219 0)"/>
     <use xlink:href="#DejaVuSans-65" transform="translate(644.429688 0)"/>
     <use xlink:href="#DejaVuSans-6e" transform="translate(705.953125 0)"/>
     <use xlink:href="#DejaVuSans-63" transform="translate(769.332031 0)"/>
     <use xlink:href="#DejaVuSans-79" transform="translate(824.3125 0)"/>
     <use xlink:href="#DejaVuSans-20" transform="translate(883.492188 0)"/>
     <use xlink:href="#DejaVuSans-b7" transform="translate(915.279297 0)"/>
     <use xlink:href="#DejaVuSans-20" transform="translate(947.066406 0)"/>
     <use xlink:href="#DejaVuSans-63" transform="translate(978.853516 0)"/>
     <use xlink:href="#DejaVuSans-6f" transform="translate(1033.833984 0)"/>
     <use xlink:href="#DejaVuSans-6e" transform="translate(1095.015625 0)"/>
     <use xlink:href="#DejaVuSans-74" transform="translate(1158.394531 0)"/>
     <use xlink:href="#DejaVuSans-61" transform="translate(1197.603516 0)"/>
     <use xlink:href="#DejaVuSans-63" transform="translate(1258.882812 0)"/>
     <use xlink:href="#DejaVuSans-74" transform="translate(1313.863281 0)"/>
     <use xlink:href="#DejaVuSans-73" transform="translate(1353.072266 0)"/>
    </g>
   </g>
   <g id="text_9">
    <!-- Odabir akcije -->
    <g style="fill: #15233b" transform="translate(342 210.864469) scale(0.15 -0.15)">
     <defs>
      <path id="DejaVuSans-Bold-4f" d="M 2719 3878 
Q 2169 3878 1866 3472 
Q 1563 3066 1563 2328 
Q 1563 1594 1866 1187 
Q 2169 781 2719 781 
Q 3272 781 3575 1187 
Q 3878 1594 3878 2328 
Q 3878 3066 3575 3472 
Q 3272 3878 2719 3878 
z
M 2719 4750 
Q 3844 4750 4481 4106 
Q 5119 3463 5119 2328 
Q 5119 1197 4481 553 
Q 3844 -91 2719 -91 
Q 1597 -91 958 553 
Q 319 1197 319 2328 
Q 319 3463 958 4106 
Q 1597 4750 2719 4750 
z
" transform="scale(0.015625)"/>
      <path id="DejaVuSans-Bold-62" d="M 2400 722 
Q 2759 722 2948 984 
Q 3138 1247 3138 1747 
Q 3138 2247 2948 2509 
Q 2759 2772 2400 2772 
Q 2041 2772 1848 2508 
Q 1656 2244 1656 1747 
Q 1656 1250 1848 986 
Q 2041 722 2400 722 
z
M 1656 2988 
Q 1888 3294 2169 3439 
Q 2450 3584 2816 3584 
Q 3463 3584 3878 3070 
Q 4294 2556 4294 1747 
Q 4294 938 3878 423 
Q 3463 -91 2816 -91 
Q 2450 -91 2169 54 
Q 1888 200 1656 506 
L 1656 0 
L 538 0 
L 538 4863 
L 1656 4863 
L 1656 2988 
z
" transform="scale(0.015625)"/>
      <path id="DejaVuSans-Bold-72" d="M 3138 2547 
Q 2991 2616 2845 2648 
Q 2700 2681 2553 2681 
Q 2122 2681 1889 2404 
Q 1656 2128 1656 1613 
L 1656 0 
L 538 0 
L 538 3500 
L 1656 3500 
L 1656 2925 
Q 1872 3269 2151 3426 
Q 2431 3584 2822 3584 
Q 2878 3584 2943 3579 
Q 3009 3575 3134 3559 
L 3138 2547 
z
" transform="scale(0.015625)"/>
     </defs>
     <use xlink:href="#DejaVuSans-Bold-4f"/>
     <use xlink:href="#DejaVuSans-Bold-64" transform="translate(85.009766 0)"/>
     <use xlink:href="#DejaVuSans-Bold-61" transform="translate(156.591797 0)"/>
     <use xlink:href="#DejaVuSans-Bold-62" transform="translate(224.072266 0)"/>
     <use xlink:href="#DejaVuSans-Bold-69" transform="translate(295.654297 0)"/>
     <use xlink:href="#DejaVuSans-Bold-72" transform="translate(329.931641 0)"/>
     <use xlink:href="#DejaVuSans-Bold-20" transform="translate(379.248047 0)"/>
     <use xlink:href="#DejaVuSans-Bold-61" transform="translate(414.0625 0)"/>
     <use xlink:href="#DejaVuSans-Bold-6b" transform="translate(481.542969 0)"/>
     <use xlink:href="#DejaVuSans-Bold-63" transform="translate(548.046875 0)"/>
     <use xlink:href="#DejaVuSans-Bold-69" transform="translate(607.324219 0)"/>
     <use xlink:href="#DejaVuSans-Bold-6a" transform="translate(641.601562 0)"/>
     <use xlink:href="#DejaVuSans-Bold-65" transform="translate(675.878906 0)"/>
    </g>
   </g>
   <g id="text_10">
    <!-- Model 2 · contextual bandit -->
    <g style="fill: #53627d" transform="translate(342 233.548643) scale(0.102 -0.102)">
     <use xlink:href="#DejaVuSans-4d"/>
     <use xlink:href="#DejaVuSans-6f" transform="translate(86.279297 0)"/>
     <use xlink:href="#DejaVuSans-64" transform="translate(147.460938 0)"/>
     <use xlink:href="#DejaVuSans-65" transform="translate(210.9375 0)"/>
     <use xlink:href="#DejaVuSans-6c" transform="translate(272.460938 0)"/>
     <use xlink:href="#DejaVuSans-20" transform="translate(300.244141 0)"/>
     <use xlink:href="#DejaVuSans-32" transform="translate(332.03125 0)"/>
     <use xlink:href="#DejaVuSans-20" transform="translate(395.654297 0)"/>
     <use xlink:href="#DejaVuSans-b7" transform="translate(427.441406 0)"/>
     <use xlink:href="#DejaVuSans-20" transform="translate(459.228516 0)"/>
     <use xlink:href="#DejaVuSans-63" transform="translate(491.015625 0)"/>
     <use xlink:href="#DejaVuSans-6f" transform="translate(545.996094 0)"/>
     <use xlink:href="#DejaVuSans-6e" transform="translate(607.177734 0)"/>
     <use xlink:href="#DejaVuSans-74" transform="translate(670.556641 0)"/>
     <use xlink:href="#DejaVuSans-65" transform="translate(709.765625 0)"/>
     <use xlink:href="#DejaVuSans-78" transform="translate(769.539062 0)"/>
     <use xlink:href="#DejaVuSans-74" transform="translate(828.71875 0)"/>
     <use xlink:href="#DejaVuSans-75" transform="translate(867.927734 0)"/>
     <use xlink:href="#DejaVuSans-61" transform="translate(931.306641 0)"/>
     <use xlink:href="#DejaVuSans-6c" transform="translate(992.585938 0)"/>
     <use xlink:href="#DejaVuSans-20" transform="translate(1020.369141 0)"/>
     <use xlink:href="#DejaVuSans-62" transform="translate(1052.15625 0)"/>
     <use xlink:href="#DejaVuSans-61" transform="translate(1115.632812 0)"/>
     <use xlink:href="#DejaVuSans-6e" transform="translate(1176.912109 0)"/>
     <use xlink:href="#DejaVuSans-64" transform="translate(1240.291016 0)"/>
     <use xlink:href="#DejaVuSans-69" transform="translate(1303.767578 0)"/>
     <use xlink:href="#DejaVuSans-74" transform="translate(1331.550781 0)"/>
    </g>
   </g>
   <g id="text_11">
    <!-- Context enters the bandit policy -->
    <g style="fill: #22304a" transform="translate(288.432 269.390981) scale(0.099 -0.099)">
     <defs>
      <path id="DejaVuSans-43" d="M 4122 4306 
L 4122 3641 
Q 3803 3938 3442 4084 
Q 3081 4231 2675 4231 
Q 1875 4231 1450 3742 
Q 1025 3253 1025 2328 
Q 1025 1406 1450 917 
Q 1875 428 2675 428 
Q 3081 428 3442 575 
Q 3803 722 4122 1019 
L 4122 359 
Q 3791 134 3420 21 
Q 3050 -91 2638 -91 
Q 1578 -91 968 557 
Q 359 1206 359 2328 
Q 359 3453 968 4101 
Q 1578 4750 2638 4750 
Q 3056 4750 3426 4639 
Q 3797 4528 4122 4306 
z
" transform="scale(0.015625)"/>
     </defs>
     <use xlink:href="#DejaVuSans-43"/>
     <use xlink:href="#DejaVuSans-6f" transform="translate(69.824219 0)"/>
     <use xlink:href="#DejaVuSans-6e" transform="translate(131.005859 0)"/>
     <use xlink:href="#DejaVuSans-74" transform="translate(194.384766 0)"/>
     <use xlink:href="#DejaVuSans-65" transform="translate(233.59375 0)"/>
     <use xlink:href="#DejaVuSans-78" transform="translate(293.367188 0)"/>
     <use xlink:href="#DejaVuSans-74" transform="translate(352.546875 0)"/>
     <use xlink:href="#DejaVuSans-20" transform="translate(391.755859 0)"/>
     <use xlink:href="#DejaVuSans-65" transform="translate(423.542969 0)"/>
     <use xlink:href="#DejaVuSans-6e" transform="translate(485.066406 0)"/>
     <use xlink:href="#DejaVuSans-74" transform="translate(548.445312 0)"/>
     <use xlink:href="#DejaVuSans-65" transform="translate(587.654297 0)"/>
     <use xlink:href="#DejaVuSans-72" transform="translate(649.177734 0)"/>
     <use xlink:href="#DejaVuSans-73" transform="translate(690.291016 0)"/>
     <use xlink:href="#DejaVuSans-20" transform="translate(742.390625 0)"/>
     <use xlink:href="#DejaVuSans-74" transform="translate(774.177734 0)"/>
     <use xlink:href="#DejaVuSans-68" transform="translate(813.386719 0)"/>
     <use xlink:href="#DejaVuSans-65" transform="translate(876.765625 0)"/>
     <use xlink:href="#DejaVuSans-20" transform="translate(938.289062 0)"/>
     <use xlink:href="#DejaVuSans-62" transform="translate(970.076172 0)"/>
     <use xlink:href="#DejaVuSans-61" transform="translate(1033.552734 0)"/>
     <use xlink:href="#DejaVuSans-6e" transform="translate(1094.832031 0)"/>
     <use xlink:href="#DejaVuSans-64" transform="translate(1158.210938 0)"/>
     <use xlink:href="#DejaVuSans-69" transform="translate(1221.6875 0)"/>
     <use xlink:href="#DejaVuSans-74" transform="translate(1249.470703 0)"/>
     <use xlink:href="#DejaVuSans-20" transform="translate(1288.679688 0)"/>
     <use xlink:href="#DejaVuSans-70" transform="translate(1320.466797 0)"/>
     <use xlink:href="#DejaVuSans-6f" transform="translate(1383.943359 0)"/>
     <use xlink:href="#DejaVuSans-6c" transform="translate(1445.125 0)"/>
     <use xlink:href="#DejaVuSans-69" transform="translate(1472.908203 0)"/>
     <use xlink:href="#DejaVuSans-63" transform="translate(1500.691406 0)"/>
     <use xlink:href="#DejaVuSans-79" transform="translate(1555.671875 0)"/>
    </g>
   </g>
   <g id="text_12">
    <!-- select max expected net reward -->
    <g style="fill: #22304a" transform="translate(288.432 296.833781) scale(0.099 -0.099)">
     <use xlink:href="#DejaVuSans-73"/>
     <use xlink:href="#DejaVuSans-65" transform="translate(52.099609 0)"/>
     <use xlink:href="#DejaVuSans-6c" transform="translate(113.623047 0)"/>
     <use xlink:href="#DejaVuSans-65" transform="translate(141.40625 0)"/>
     <use xlink:href="#DejaVuSans-63" transform="translate(202.929688 0)"/>
     <use xlink:href="#DejaVuSans-74" transform="translate(257.910156 0)"/>
     <use xlink:href="#DejaVuSans-20" transform="translate(297.119141 0)"/>
     <use xlink:href="#DejaVuSans-6d" transform="translate(328.90625 0)"/>
     <use xlink:href="#DejaVuSans-61" transform="translate(426.318359 0)"/>
     <use xlink:href="#DejaVuSans-78" transform="translate(487.597656 0)"/>
     <use xlink:href="#DejaVuSans-20" transform="translate(546.777344 0)"/>
     <use xlink:href="#DejaVuSans-65" transform="translate(578.564453 0)"/>
     <use xlink:href="#DejaVuSans-78" transform="translate(638.337891 0)"/>
     <use xlink:href="#DejaVuSans-70" transform="translate(697.517578 0)"/>
     <use xlink:href="#DejaVuSans-65" transform="translate(760.994141 0)"/>
     <use xlink:href="#DejaVuSans-63" transform="translate(822.517578 0)"/>
     <use xlink:href="#DejaVuSans-74" transform="translate(877.498047 0)"/>
     <use xlink:href="#DejaVuSans-65" transform="translate(916.707031 0)"/>
     <use xlink:href="#DejaVuSans-64" transform="translate(978.230469 0)"/>
     <use xlink:href="#DejaVuSans-20" transform="translate(1041.707031 0)"/>
     <use xlink:href="#DejaVuSans-6e" transform="translate(1073.494141 0)"/>
     <use xlink:href="#DejaVuSans-65" transform="translate(1136.873047 0)"/>
     <use xlink:href="#DejaVuSans-74" transform="translate(1198.396484 0)"/>
     <use xlink:href="#DejaVuSans-20" transform="translate(1237.605469 0)"/>
     <use xlink:href="#DejaVuSans-72" transform="translate(1269.392578 0)"/>
     <use xlink:href="#DejaVuSans-65" transform="translate(1308.255859 0)"/>
     <use xlink:href="#DejaVuSans-77" transform="translate(1369.779297 0)"/>
     <use xlink:href="#DejaVuSans-61" transform="translate(1451.566406 0)"/>
     <use xlink:href="#DejaVuSans-72" transform="translate(1512.845703 0)"/>
     <use xlink:href="#DejaVuSans-64" transform="translate(1552.208984 0)"/>
    </g>
   </g>
   <g id="text_13">
    <!-- no action · push · email · call -->
    <g style="fill: #22304a" transform="translate(288.432 324.276581) scale(0.099 -0.099)">
     <use xlink:href="#DejaVuSans-6e"/>
     <use xlink:href="#DejaVuSans-6f" transform="translate(63.378906 0)"/>
     <use xlink:href="#DejaVuSans-20" transform="translate(124.560547 0)"/>
     <use xlink:href="#DejaVuSans-61" transform="translate(156.347656 0)"/>
     <use xlink:href="#DejaVuSans-63" transform="translate(217.626953 0)"/>
     <use xlink:href="#DejaVuSans-74" transform="translate(272.607422 0)"/>
     <use xlink:href="#DejaVuSans-69" transform="translate(311.816406 0)"/>
     <use xlink:href="#DejaVuSans-6f" transform="translate(339.599609 0)"/>
     <use xlink:href="#DejaVuSans-6e" transform="translate(400.78125 0)"/>
     <use xlink:href="#DejaVuSans-20" transform="translate(464.160156 0)"/>
     <use xlink:href="#DejaVuSans-b7" transform="translate(495.947266 0)"/>
     <use xlink:href="#DejaVuSans-20" transform="translate(527.734375 0)"/>
     <use xlink:href="#DejaVuSans-70" transform="translate(559.521484 0)"/>
     <use xlink:href="#DejaVuSans-75" transform="translate(622.998047 0)"/>
     <use xlink:href="#DejaVuSans-73" transform="translate(686.376953 0)"/>
     <use xlink:href="#DejaVuSans-68" transform="translate(738.476562 0)"/>
     <use xlink:href="#DejaVuSans-20" transform="translate(801.855469 0)"/>
     <use xlink:href="#DejaVuSans-b7" transform="translate(833.642578 0)"/>
     <use xlink:href="#DejaVuSans-20" transform="translate(865.429688 0)"/>
     <use xlink:href="#DejaVuSans-65" transform="translate(897.216797 0)"/>
     <use xlink:href="#DejaVuSans-6d" transform="translate(958.740234 0)"/>
     <use xlink:href="#DejaVuSans-61" transform="translate(1056.152344 0)"/>
     <use xlink:href="#DejaVuSans-69" transform="translate(1117.431641 0)"/>
     <use xlink:href="#DejaVuSans-6c" transform="translate(1145.214844 0)"/>
     <use xlink:href="#DejaVuSans-20" transform="translate(1172.998047 0)"/>
     <use xlink:href="#DejaVuSans-b7" transform="translate(1204.785156 0)"/>
     <use xlink:href="#DejaVuSans-20" transform="translate(1236.572266 0)"/>
     <use xlink:href="#DejaVuSans-63" transform="translate(1268.359375 0)"/>
     <use xlink:href="#DejaVuSans-61" transform="translate(1323.339844 0)"/>
     <use xlink:href="#DejaVuSans-6c" transform="translate(1384.619141 0)"/>
     <use xlink:href="#DejaVuSans-6c" transform="translate(1412.402344 0)"/>
    </g>
   </g>
   <g id="text_14">
    <!-- cost + customer value guide choice -->
    <g style="fill: #22304a" transform="translate(288.432 351.719381) scale(0.099 -0.099)">
     <use xlink:href="#DejaVuSans-63"/>
     <use xlink:href="#DejaVuSans-6f" transform="translate(54.980469 0)"/>
     <use xlink:href="#DejaVuSans-73" transform="translate(116.162109 0)"/>
     <use xlink:href="#DejaVuSans-74" transform="translate(168.261719 0)"/>
     <use xlink:href="#DejaVuSans-20" transform="translate(207.470703 0)"/>
     <use xlink:href="#DejaVuSans-2b" transform="translate(239.257812 0)"/>
     <use xlink:href="#DejaVuSans-20" transform="translate(323.046875 0)"/>
     <use xlink:href="#DejaVuSans-63" transform="translate(354.833984 0)"/>
     <use xlink:href="#DejaVuSans-75" transform="translate(409.814453 0)"/>
     <use xlink:href="#DejaVuSans-73" transform="translate(473.193359 0)"/>
     <use xlink:href="#DejaVuSans-74" transform="translate(525.292969 0)"/>
     <use xlink:href="#DejaVuSans-6f" transform="translate(564.501953 0)"/>
     <use xlink:href="#DejaVuSans-6d" transform="translate(625.683594 0)"/>
     <use xlink:href="#DejaVuSans-65" transform="translate(723.095703 0)"/>
     <use xlink:href="#DejaVuSans-72" transform="translate(784.619141 0)"/>
     <use xlink:href="#DejaVuSans-20" transform="translate(825.732422 0)"/>
     <use xlink:href="#DejaVuSans-76" transform="translate(857.519531 0)"/>
     <use xlink:href="#DejaVuSans-61" transform="translate(916.699219 0)"/>
     <use xlink:href="#DejaVuSans-6c" transform="translate(977.978516 0)"/>
     <use xlink:href="#DejaVuSans-75" transform="translate(1005.761719 0)"/>
     <use xlink:href="#DejaVuSans-65" transform="translate(1069.140625 0)"/>
     <use xlink:href="#DejaVuSans-20" transform="translate(1130.664062 0)"/>
     <use xlink:href="#DejaVuSans-67" transform="translate(1162.451172 0)"/>
     <use xlink:href="#DejaVuSans-75" transform="translate(1225.927734 0)"/>
     <use xlink:href="#DejaVuSans-69" transform="translate(1289.306641 0)"/>
     <use xlink:href="#DejaVuSans-64" transform="translate(1317.089844 0)"/>
     <use xlink:href="#DejaVuSans-65" transform="translate(1380.566406 0)"/>
     <use xlink:href="#DejaVuSans-20" transform="translate(1442.089844 0)"/>
     <use xlink:href="#DejaVuSans-63" transform="translate(1473.876953 0)"/>
     <use xlink:href="#DejaVuSans-68" transform="translate(1528.857422 0)"/>
     <use xlink:href="#DejaVuSans-6f" transform="translate(1592.236328 0)"/>
     <use xlink:href="#DejaVuSans-69" transform="translate(1653.417969 0)"/>
     <use xlink:href="#DejaVuSans-63" transform="translate(1681.201172 0)"/>
     <use xlink:href="#DejaVuSans-65" transform="translate(1736.181641 0)"/>
    </g>
   </g>
   <g id="text_15">
    <!-- Ishod -->
    <g style="fill: #15233b" transform="translate(569.664 210.923063) scale(0.15 -0.15)">
     <defs>
      <path id="DejaVuSans-Bold-49" d="M 588 4666 
L 1791 4666 
L 1791 0 
L 588 0 
L 588 4666 
z
" transform="scale(0.015625)"/>
      <path id="DejaVuSans-Bold-68" d="M 4056 2131 
L 4056 0 
L 2931 0 
L 2931 347 
L 2931 1625 
Q 2931 2084 2911 2256 
Q 2891 2428 2841 2509 
Q 2775 2619 2662 2680 
Q 2550 2741 2406 2741 
Q 2056 2741 1856 2470 
Q 1656 2200 1656 1722 
L 1656 0 
L 538 0 
L 538 4863 
L 1656 4863 
L 1656 2988 
Q 1909 3294 2193 3439 
Q 2478 3584 2822 3584 
Q 3428 3584 3742 3212 
Q 4056 2841 4056 2131 
z
" transform="scale(0.015625)"/>
     </defs>
     <use xlink:href="#DejaVuSans-Bold-49"/>
     <use xlink:href="#DejaVuSans-Bold-73" transform="translate(37.207031 0)"/>
     <use xlink:href="#DejaVuSans-Bold-68" transform="translate(96.728516 0)"/>
     <use xlink:href="#DejaVuSans-Bold-6f" transform="translate(167.919922 0)"/>
     <use xlink:href="#DejaVuSans-Bold-64" transform="translate(236.621094 0)"/>
    </g>
   </g>
   <g id="text_16">
    <!-- +90 days observed outcome -->
    <g style="fill: #53627d" transform="translate(569.664 233.548643) scale(0.102 -0.102)">
     <defs>
      <path id="DejaVuSans-39" d="M 703 97 
L 703 672 
Q 941 559 1184 500 
Q 1428 441 1663 441 
Q 2288 441 2617 861 
Q 2947 1281 2994 2138 
Q 2813 1869 2534 1725 
Q 2256 1581 1919 1581 
Q 1219 1581 811 2004 
Q 403 2428 403 3163 
Q 403 3881 828 4315 
Q 1253 4750 1959 4750 
Q 2769 4750 3195 4129 
Q 3622 3509 3622 2328 
Q 3622 1225 3098 567 
Q 2575 -91 1691 -91 
Q 1453 -91 1209 -44 
Q 966 3 703 97 
z
M 1959 2075 
Q 2384 2075 2632 2365 
Q 2881 2656 2881 3163 
Q 2881 3666 2632 3958 
Q 2384 4250 1959 4250 
Q 1534 4250 1286 3958 
Q 1038 3666 1038 3163 
Q 1038 2656 1286 2365 
Q 1534 2075 1959 2075 
z
" transform="scale(0.015625)"/>
     </defs>
     <use xlink:href="#DejaVuSans-2b"/>
     <use xlink:href="#DejaVuSans-39" transform="translate(83.789062 0)"/>
     <use xlink:href="#DejaVuSans-30" transform="translate(147.412109 0)"/>
     <use xlink:href="#DejaVuSans-20" transform="translate(211.035156 0)"/>
     <use xlink:href="#DejaVuSans-64" transform="translate(242.822266 0)"/>
     <use xlink:href="#DejaVuSans-61" transform="translate(306.298828 0)"/>
     <use xlink:href="#DejaVuSans-79" transform="translate(367.578125 0)"/>
     <use xlink:href="#DejaVuSans-73" transform="translate(426.757812 0)"/>
     <use xlink:href="#DejaVuSans-20" transform="translate(478.857422 0)"/>
     <use xlink:href="#DejaVuSans-6f" transform="translate(510.644531 0)"/>
     <use xlink:href="#DejaVuSans-62" transform="translate(571.826172 0)"/>
     <use xlink:href="#DejaVuSans-73" transform="translate(635.302734 0)"/>
     <use xlink:href="#DejaVuSans-65" transform="translate(687.402344 0)"/>
     <use xlink:href="#DejaVuSans-72" transform="translate(748.925781 0)"/>
     <use xlink:href="#DejaVuSans-76" transform="translate(790.039062 0)"/>
     <use xlink:href="#DejaVuSans-65" transform="translate(849.21875 0)"/>
     <use xlink:href="#DejaVuSans-64" transform="translate(910.742188 0)"/>
     <use xlink:href="#DejaVuSans-20" transform="translate(974.21875 0)"/>
     <use xlink:href="#DejaVuSans-6f" transform="translate(1006.005859 0)"/>
     <use xlink:href="#DejaVuSans-75" transform="translate(1067.1875 0)"/>
     <use xlink:href="#DejaVuSans-74" transform="translate(1130.566406 0)"/>
     <use xlink:href="#DejaVuSans-63" transform="translate(1169.775391 0)"/>
     <use xlink:href="#DejaVuSans-6f" transform="translate(1224.755859 0)"/>
     <use xlink:href="#DejaVuSans-6d" transform="translate(1285.9375 0)"/>
     <use xlink:href="#DejaVuSans-65" transform="translate(1383.349609 0)"/>
    </g>
   </g>
   <g id="text_17">
    <!-- Observe retained vs fully churned -->
    <g style="fill: #22304a" transform="translate(516.096 269.390981) scale(0.099 -0.099)">
     <use xlink:href="#DejaVuSans-4f"/>
     <use xlink:href="#DejaVuSans-62" transform="translate(78.710938 0)"/>
     <use xlink:href="#DejaVuSans-73" transform="translate(142.1875 0)"/>
     <use xlink:href="#DejaVuSans-65" transform="translate(194.287109 0)"/>
     <use xlink:href="#DejaVuSans-72" transform="translate(255.810547 0)"/>
     <use xlink:href="#DejaVuSans-76" transform="translate(296.923828 0)"/>
     <use xlink:href="#DejaVuSans-65" transform="translate(356.103516 0)"/>
     <use xlink:href="#DejaVuSans-20" transform="translate(417.626953 0)"/>
     <use xlink:href="#DejaVuSans-72" transform="translate(449.414062 0)"/>
     <use xlink:href="#DejaVuSans-65" transform="translate(488.277344 0)"/>
     <use xlink:href="#DejaVuSans-74" transform="translate(549.800781 0)"/>
     <use xlink:href="#DejaVuSans-61" transform="translate(589.009766 0)"/>
     <use xlink:href="#DejaVuSans-69" transform="translate(650.289062 0)"/>
     <use xlink:href="#DejaVuSans-6e" transform="translate(678.072266 0)"/>
     <use xlink:href="#DejaVuSans-65" transform="translate(741.451172 0)"/>
     <use xlink:href="#DejaVuSans-64" transform="translate(802.974609 0)"/>
     <use xlink:href="#DejaVuSans-20" transform="translate(866.451172 0)"/>
     <use xlink:href="#DejaVuSans-76" transform="translate(898.238281 0)"/>
     <use xlink:href="#DejaVuSans-73" transform="translate(957.417969 0)"/>
     <use xlink:href="#DejaVuSans-20" transform="translate(1009.517578 0)"/>
     <use xlink:href="#DejaVuSans-66" transform="translate(1041.304688 0)"/>
     <use xlink:href="#DejaVuSans-75" transform="translate(1076.509766 0)"/>
     <use xlink:href="#DejaVuSans-6c" transform="translate(1139.888672 0)"/>
     <use xlink:href="#DejaVuSans-6c" transform="translate(1167.671875 0)"/>
     <use xlink:href="#DejaVuSans-79" transform="translate(1195.455078 0)"/>
     <use xlink:href="#DejaVuSans-20" transform="translate(1254.634766 0)"/>
     <use xlink:href="#DejaVuSans-63" transform="translate(1286.421875 0)"/>
     <use xlink:href="#DejaVuSans-68" transform="translate(1341.402344 0)"/>
     <use xlink:href="#DejaVuSans-75" transform="translate(1404.78125 0)"/>
     <use xlink:href="#DejaVuSans-72" transform="translate(1468.160156 0)"/>
     <use xlink:href="#DejaVuSans-6e" transform="translate(1507.523438 0)"/>
     <use xlink:href="#DejaVuSans-65" transform="translate(1570.902344 0)"/>
     <use xlink:href="#DejaVuSans-64" transform="translate(1632.425781 0)"/>
    </g>
   </g>
   <g id="text_18">
    <!-- reward after 90 days -->
    <g style="fill: #22304a" transform="translate(516.096 296.833781) scale(0.099 -0.099)">
     <use xlink:href="#DejaVuSans-72"/>
     <use xlink:href="#DejaVuSans-65" transform="translate(38.863281 0)"/>
     <use xlink:href="#DejaVuSans-77" transform="translate(100.386719 0)"/>
     <use xlink:href="#DejaVuSans-61" transform="translate(182.173828 0)"/>
     <use xlink:href="#DejaVuSans-72" transform="translate(243.453125 0)"/>
     <use xlink:href="#DejaVuSans-64" transform="translate(282.816406 0)"/>
     <use xlink:href="#DejaVuSans-20" transform="translate(346.292969 0)"/>
     <use xlink:href="#DejaVuSans-61" transform="translate(378.080078 0)"/>
     <use xlink:href="#DejaVuSans-66" transform="translate(439.359375 0)"/>
     <use xlink:href="#DejaVuSans-74" transform="translate(472.814453 0)"/>
     <use xlink:href="#DejaVuSans-65" transform="translate(512.023438 0)"/>
     <use xlink:href="#DejaVuSans-72" transform="translate(573.546875 0)"/>
     <use xlink:href="#DejaVuSans-20" transform="translate(614.660156 0)"/>
     <use xlink:href="#DejaVuSans-39" transform="translate(646.447266 0)"/>
     <use xlink:href="#DejaVuSans-30" transform="translate(710.070312 0)"/>
     <use xlink:href="#DejaVuSans-20" transform="translate(773.693359 0)"/>
     <use xlink:href="#DejaVuSans-64" transform="translate(805.480469 0)"/>
     <use xlink:href="#DejaVuSans-61" transform="translate(868.957031 0)"/>
     <use xlink:href="#DejaVuSans-79" transform="translate(930.236328 0)"/>
     <use xlink:href="#DejaVuSans-73" transform="translate(989.416016 0)"/>
    </g>
   </g>
   <g id="text_19">
    <!-- (1 - Y) · value - cost -->
    <g style="fill: #22304a" transform="translate(516.096 324.276581) scale(0.099 -0.099)">
     <defs>
      <path id="DejaVuSans-59" d="M -13 4666 
L 666 4666 
L 1959 2747 
L 3244 4666 
L 3922 4666 
L 2272 2222 
L 2272 0 
L 1638 0 
L 1638 2222 
L -13 4666 
z
" transform="scale(0.015625)"/>
     </defs>
     <use xlink:href="#DejaVuSans-28"/>
     <use xlink:href="#DejaVuSans-31" transform="translate(39.013672 0)"/>
     <use xlink:href="#DejaVuSans-20" transform="translate(102.636719 0)"/>
     <use xlink:href="#DejaVuSans-2d" transform="translate(134.423828 0)"/>
     <use xlink:href="#DejaVuSans-20" transform="translate(170.507812 0)"/>
     <use xlink:href="#DejaVuSans-59" transform="translate(202.294922 0)"/>
     <use xlink:href="#DejaVuSans-29" transform="translate(263.378906 0)"/>
     <use xlink:href="#DejaVuSans-20" transform="translate(302.392578 0)"/>
     <use xlink:href="#DejaVuSans-b7" transform="translate(334.179688 0)"/>
     <use xlink:href="#DejaVuSans-20" transform="translate(365.966797 0)"/>
     <use xlink:href="#DejaVuSans-76" transform="translate(397.753906 0)"/>
     <use xlink:href="#DejaVuSans-61" transform="translate(456.933594 0)"/>
     <use xlink:href="#DejaVuSans-6c" transform="translate(518.212891 0)"/>
     <use xlink:href="#DejaVuSans-75" transform="translate(545.996094 0)"/>
     <use xlink:href="#DejaVuSans-65" transform="translate(609.375 0)"/>
     <use xlink:href="#DejaVuSans-20" transform="translate(670.898438 0)"/>
     <use xlink:href="#DejaVuSans-2d" transform="translate(702.685547 0)"/>
     <use xlink:href="#DejaVuSans-20" transform="translate(738.769531 0)"/>
     <use xlink:href="#DejaVuSans-63" transform="translate(770.556641 0)"/>
     <use xlink:href="#DejaVuSans-6f" transform="translate(825.537109 0)"/>
     <use xlink:href="#DejaVuSans-73" transform="translate(886.71875 0)"/>
     <use xlink:href="#DejaVuSans-74" transform="translate(938.818359 0)"/>
    </g>
   </g>
   <g id="text_20">
    <!-- Feedback -->
    <g style="fill: #15233b" transform="translate(766.08 210.923062) scale(0.15 -0.15)">
     <defs>
      <path id="DejaVuSans-Bold-46" d="M 588 4666 
L 3834 4666 
L 3834 3756 
L 1791 3756 
L 1791 2888 
L 3713 2888 
L 3713 1978 
L 1791 1978 
L 1791 0 
L 588 0 
L 588 4666 
z
" transform="scale(0.015625)"/>
     </defs>
     <use xlink:href="#DejaVuSans-Bold-46"/>
     <use xlink:href="#DejaVuSans-Bold-65" transform="translate(64.310547 0)"/>
     <use xlink:href="#DejaVuSans-Bold-65" transform="translate(132.132812 0)"/>
     <use xlink:href="#DejaVuSans-Bold-64" transform="translate(199.955078 0)"/>
     <use xlink:href="#DejaVuSans-Bold-62" transform="translate(271.537109 0)"/>
     <use xlink:href="#DejaVuSans-Bold-61" transform="translate(343.119141 0)"/>
     <use xlink:href="#DejaVuSans-Bold-63" transform="translate(410.599609 0)"/>
     <use xlink:href="#DejaVuSans-Bold-6b" transform="translate(469.876953 0)"/>
    </g>
   </g>
   <g id="text_21">
    <!-- reward-driven learning -->
    <g style="fill: #53627d" transform="translate(766.08 233.548643) scale(0.102 -0.102)">
     <use xlink:href="#DejaVuSans-72"/>
     <use xlink:href="#DejaVuSans-65" transform="translate(38.863281 0)"/>
     <use xlink:href="#DejaVuSans-77" transform="translate(100.386719 0)"/>
     <use xlink:href="#DejaVuSans-61" transform="translate(182.173828 0)"/>
     <use xlink:href="#DejaVuSans-72" transform="translate(243.453125 0)"/>
     <use xlink:href="#DejaVuSans-64" transform="translate(282.816406 0)"/>
     <use xlink:href="#DejaVuSans-2d" transform="translate(346.292969 0)"/>
     <use xlink:href="#DejaVuSans-64" transform="translate(382.376953 0)"/>
     <use xlink:href="#DejaVuSans-72" transform="translate(445.853516 0)"/>
     <use xlink:href="#DejaVuSans-69" transform="translate(486.966797 0)"/>
     <use xlink:href="#DejaVuSans-76" transform="translate(514.75 0)"/>
     <use xlink:href="#DejaVuSans-65" transform="translate(573.929688 0)"/>
     <use xlink:href="#DejaVuSans-6e" transform="translate(635.453125 0)"/>
     <use xlink:href="#DejaVuSans-20" transform="translate(698.832031 0)"/>
     <use xlink:href="#DejaVuSans-6c" transform="translate(730.619141 0)"/>
     <use xlink:href="#DejaVuSans-65" transform="translate(758.402344 0)"/>
     <use xlink:href="#DejaVuSans-61" transform="translate(819.925781 0)"/>
     <use xlink:href="#DejaVuSans-72" transform="translate(881.205078 0)"/>
     <use xlink:href="#DejaVuSans-6e" transform="translate(920.568359 0)"/>
     <use xlink:href="#DejaVuSans-69" transform="translate(983.947266 0)"/>
     <use xlink:href="#DejaVuSans-6e" transform="translate(1011.730469 0)"/>
     <use xlink:href="#DejaVuSans-67" transform="translate(1075.109375 0)"/>
    </g>
   </g>
   <g id="text_22">
    <!-- Observed reward updates bandit -->
    <g style="fill: #22304a" transform="translate(712.512 269.390981) scale(0.099 -0.099)">
     <use xlink:href="#DejaVuSans-4f"/>
     <use xlink:href="#DejaVuSans-62" transform="translate(78.710938 0)"/>
     <use xlink:href="#DejaVuSans-73" transform="translate(142.1875 0)"/>
     <use xlink:href="#DejaVuSans-65" transform="translate(194.287109 0)"/>
     <use xlink:href="#DejaVuSans-72" transform="translate(255.810547 0)"/>
     <use xlink:href="#DejaVuSans-76" transform="translate(296.923828 0)"/>
     <use xlink:href="#DejaVuSans-65" transform="translate(356.103516 0)"/>
     <use xlink:href="#DejaVuSans-64" transform="translate(417.626953 0)"/>
     <use xlink:href="#DejaVuSans-20" transform="translate(481.103516 0)"/>
     <use xlink:href="#DejaVuSans-72" transform="translate(512.890625 0)"/>
     <use xlink:href="#DejaVuSans-65" transform="translate(551.753906 0)"/>
     <use xlink:href="#DejaVuSans-77" transform="translate(613.277344 0)"/>
     <use xlink:href="#DejaVuSans-61" transform="translate(695.064453 0)"/>
     <use xlink:href="#DejaVuSans-72" transform="translate(756.34375 0)"/>
     <use xlink:href="#DejaVuSans-64" transform="translate(795.707031 0)"/>
     <use xlink:href="#DejaVuSans-20" transform="translate(859.183594 0)"/>
     <use xlink:href="#DejaVuSans-75" transform="translate(890.970703 0)"/>
     <use xlink:href="#DejaVuSans-70" transform="translate(954.349609 0)"/>
     <use xlink:href="#DejaVuSans-64" transform="translate(1017.826172 0)"/>
     <use xlink:href="#DejaVuSans-61" transform="translate(1081.302734 0)"/>
     <use xlink:href="#DejaVuSans-74" transform="translate(1142.582031 0)"/>
     <use xlink:href="#DejaVuSans-65" transform="translate(1181.791016 0)"/>
     <use xlink:href="#DejaVuSans-73" transform="translate(1243.314453 0)"/>
     <use xlink:href="#DejaVuSans-20" transform="translate(1295.414062 0)"/>
     <use xlink:href="#DejaVuSans-62" transform="translate(1327.201172 0)"/>
     <use xlink:href="#DejaVuSans-61" transform="translate(1390.677734 0)"/>
     <use xlink:href="#DejaVuSans-6e" transform="translate(1451.957031 0)"/>
     <use xlink:href="#DejaVuSans-64" transform="translate(1515.335938 0)"/>
     <use xlink:href="#DejaVuSans-69" transform="translate(1578.8125 0)"/>
     <use xlink:href="#DejaVuSans-74" transform="translate(1606.595703 0)"/>
    </g>
   </g>
   <g id="text_23">
    <!-- policy adapts across months -->
    <g style="fill: #22304a" transform="translate(712.512 296.833781) scale(0.099 -0.099)">
     <use xlink:href="#DejaVuSans-70"/>
     <use xlink:href="#DejaVuSans-6f" transform="translate(63.476562 0)"/>
     <use xlink:href="#DejaVuSans-6c" transform="translate(124.658203 0)"/>
     <use xlink:href="#DejaVuSans-69" transform="translate(152.441406 0)"/>
     <use xlink:href="#DejaVuSans-63" transform="translate(180.224609 0)"/>
     <use xlink:href="#DejaVuSans-79" transform="translate(235.205078 0)"/>
     <use xlink:href="#DejaVuSans-20" transform="translate(294.384766 0)"/>
     <use xlink:href="#DejaVuSans-61" transform="translate(326.171875 0)"/>
     <use xlink:href="#DejaVuSans-64" transform="translate(387.451172 0)"/>
     <use xlink:href="#DejaVuSans-61" transform="translate(450.927734 0)"/>
     <use xlink:href="#DejaVuSans-70" transform="translate(512.207031 0)"/>
     <use xlink:href="#DejaVuSans-74" transform="translate(575.683594 0)"/>
     <use xlink:href="#DejaVuSans-73" transform="translate(614.892578 0)"/>
     <use xlink:href="#DejaVuSans-20" transform="translate(666.992188 0)"/>
     <use xlink:href="#DejaVuSans-61" transform="translate(698.779297 0)"/>
     <use xlink:href="#DejaVuSans-63" transform="translate(760.058594 0)"/>
     <use xlink:href="#DejaVuSans-72" transform="translate(815.039062 0)"/>
     <use xlink:href="#DejaVuSans-6f" transform="translate(853.902344 0)"/>
     <use xlink:href="#DejaVuSans-73" transform="translate(915.083984 0)"/>
     <use xlink:href="#DejaVuSans-73" transform="translate(967.183594 0)"/>
     <use xlink:href="#DejaVuSans-20" transform="translate(1019.283203 0)"/>
     <use xlink:href="#DejaVuSans-6d" transform="translate(1051.070312 0)"/>
     <use xlink:href="#DejaVuSans-6f" transform="translate(1148.482422 0)"/>
     <use xlink:href="#DejaVuSans-6e" transform="translate(1209.664062 0)"/>
     <use xlink:href="#DejaVuSans-74" transform="translate(1273.042969 0)"/>
     <use xlink:href="#DejaVuSans-68" transform="translate(1312.251953 0)"/>
     <use xlink:href="#DejaVuSans-73" transform="translate(1375.630859 0)"/>
    </g>
   </g>
   <g id="text_24">
    <!-- high-cost actions need evidence -->
    <g style="fill: #22304a" transform="translate(712.512 324.276581) scale(0.099 -0.099)">
     <use xlink:href="#DejaVuSans-68"/>
     <use xlink:href="#DejaVuSans-69" transform="translate(63.378906 0)"/>
     <use xlink:href="#DejaVuSans-67" transform="translate(91.162109 0)"/>
     <use xlink:href="#DejaVuSans-68" transform="translate(154.638672 0)"/>
     <use xlink:href="#DejaVuSans-2d" transform="translate(218.017578 0)"/>
     <use xlink:href="#DejaVuSans-63" transform="translate(254.101562 0)"/>
     <use xlink:href="#DejaVuSans-6f" transform="translate(309.082031 0)"/>
     <use xlink:href="#DejaVuSans-73" transform="translate(370.263672 0)"/>
     <use xlink:href="#DejaVuSans-74" transform="translate(422.363281 0)"/>
     <use xlink:href="#DejaVuSans-20" transform="translate(461.572266 0)"/>
     <use xlink:href="#DejaVuSans-61" transform="translate(493.359375 0)"/>
     <use xlink:href="#DejaVuSans-63" transform="translate(554.638672 0)"/>
     <use xlink:href="#DejaVuSans-74" transform="translate(609.619141 0)"/>
     <use xlink:href="#DejaVuSans-69" transform="translate(648.828125 0)"/>
     <use xlink:href="#DejaVuSans-6f" transform="translate(676.611328 0)"/>
     <use xlink:href="#DejaVuSans-6e" transform="translate(737.792969 0)"/>
     <use xlink:href="#DejaVuSans-73" transform="translate(801.171875 0)"/>
     <use xlink:href="#DejaVuSans-20" transform="translate(853.271484 0)"/>
     <use xlink:href="#DejaVuSans-6e" transform="translate(885.058594 0)"/>
     <use xlink:href="#DejaVuSans-65" transform="translate(948.4375 0)"/>
     <use xlink:href="#DejaVuSans-65" transform="translate(1009.960938 0)"/>
     <use xlink:href="#DejaVuSans-64" transform="translate(1071.484375 0)"/>
     <use xlink:href="#DejaVuSans-20" transform="translate(1134.960938 0)"/>
     <use xlink:href="#DejaVuSans-65" transform="translate(1166.748047 0)"/>
     <use xlink:href="#DejaVuSans-76" transform="translate(1228.271484 0)"/>
     <use xlink:href="#DejaVuSans-69" transform="translate(1287.451172 0)"/>
     <use xlink:href="#DejaVuSans-64" transform="translate(1315.234375 0)"/>
     <use xlink:href="#DejaVuSans-65" transform="translate(1378.710938 0)"/>
     <use xlink:href="#DejaVuSans-6e" transform="translate(1440.234375 0)"/>
     <use xlink:href="#DejaVuSans-63" transform="translate(1503.613281 0)"/>
     <use xlink:href="#DejaVuSans-65" transform="translate(1558.59375 0)"/>
    </g>
   </g>
  </g>
 </g>
 <defs>
  <clipPath id="pf126c46f1f">
   <rect x="7.2" y="7.2" width="892.8" height="498.96"/>
  </clipPath>
 </defs>
</svg>
